<svg width="17" height="16" viewBox="0 0 17 16" fill="none" xmlns="http://www.w3.org/2000/svg">
<path d="M12.9295 6.15407H11.6987C11.6982 5.66459 11.5035 5.1953 11.1574 4.84918C10.8113 4.50307 10.342 4.30841 9.85254 4.30792V3.07715C10.6683 3.07813 11.4504 3.40261 12.0272 3.97944C12.604 4.55626 12.9285 5.33832 12.9295 6.15407Z" fill="#07B1FD"/>
<path d="M15.391 6.1537H14.1602C14.1589 5.01162 13.7047 3.9167 12.8971 3.10914C12.0895 2.30157 10.9946 1.84731 9.85254 1.846V0.615234C11.3209 0.616863 12.7287 1.2009 13.767 2.23921C14.8053 3.27752 15.3894 4.6853 15.391 6.1537Z" fill="#07B1FD"/>
<path d="M14.1593 16H14.0547C1.96235 15.3046 0.24543 5.10154 0.00543045 1.98769C-0.0320796 1.49954 0.125851 1.01647 0.444484 0.644754C0.763117 0.273034 1.21636 0.0431044 1.70451 0.00553908C1.75333 0.00184677 1.80235 5.76979e-07 1.85158 5.76979e-07H5.09466C5.34116 -0.000238047 5.58205 0.073545 5.78613 0.211792C5.99021 0.35004 6.14807 0.546382 6.23928 0.775385L7.17466 3.07692C7.26472 3.30064 7.28707 3.5459 7.23893 3.78221C7.1908 4.01853 7.07429 4.23549 6.90389 4.40615L5.59312 5.72923C5.79704 6.89313 6.35397 7.96614 7.18841 8.80278C8.02284 9.63941 9.09439 10.1992 10.2577 10.4062L11.5931 9.08308C11.7664 8.91456 11.9854 8.80077 12.2228 8.7559C12.4603 8.71103 12.7057 8.73707 12.9285 8.83077L15.2485 9.76C15.4741 9.85408 15.6665 10.0132 15.8013 10.217C15.9361 10.4209 16.0072 10.6602 16.0054 10.9046V14.1538C16.0054 14.6435 15.8109 15.1131 15.4647 15.4593C15.1185 15.8055 14.6489 16 14.1593 16ZM1.85158 1.23077C1.77077 1.23053 1.6907 1.2462 1.61595 1.27691C1.54119 1.30761 1.47322 1.35273 1.4159 1.40971C1.35858 1.46668 1.31305 1.53438 1.2819 1.60895C1.25075 1.68352 1.2346 1.76349 1.23435 1.84431C1.23435 1.86154 1.23497 1.87856 1.2362 1.89539C1.51928 5.53846 3.33466 14.1538 14.1224 14.7692C14.2852 14.779 14.4453 14.7237 14.5674 14.6154C14.6895 14.5072 14.7636 14.3549 14.7734 14.192L14.7747 14.1538V10.9046L12.4547 9.97538L10.6885 11.7292L10.3931 11.6923C5.03928 11.0215 4.31312 5.66769 4.31312 5.61231L4.2762 5.31692L6.02389 3.55077L5.10081 1.23077H1.85158Z" fill="#07B1FD"/>
</svg>
