<svg width="143" height="43" viewBox="0 0 143 43" fill="none" xmlns="http://www.w3.org/2000/svg">
<path d="M37.7417 25.1652C37.0177 25.1652 36.4746 25.4368 36.1126 25.98C35.7506 26.5231 35.5696 27.2473 35.5696 28.1526C35.5696 30.0536 36.2936 31.0494 37.7417 31.0494C38.3753 31.0494 39.0993 30.8684 40.0044 30.5968V32.1357C39.2803 32.4073 38.4658 32.5884 37.5607 32.5884C36.2936 32.5884 35.2981 32.2263 34.6645 31.4115C34.031 30.5968 33.6689 29.5105 33.6689 28.1526C33.6689 27.2473 33.85 26.4326 34.1215 25.7989C34.393 25.1652 34.936 24.6221 35.5696 24.26C36.2031 23.8978 36.9272 23.7168 37.7417 23.7168C38.5563 23.7168 39.4614 23.8978 40.2759 24.3505L39.6424 25.7989C39.2803 25.6178 39.0088 25.5273 38.6468 25.4368C38.3753 25.2557 38.1038 25.1652 37.7417 25.1652Z" fill="#07B1FD"/>
<path d="M43.7151 29.1487V32.4981H41.8145V23.8076H44.3486C45.5252 23.8076 46.4303 23.9887 46.9733 24.4413C47.5163 24.8939 47.7879 25.5276 47.7879 26.4329C47.7879 26.976 47.6069 27.4287 47.3353 27.7908C47.0638 28.1529 46.6113 28.515 46.1588 28.696C47.5163 30.5971 48.3309 31.8645 48.6929 32.4981H46.6113L44.5296 29.1487H43.7151ZM43.7151 27.6097H44.3486C44.8917 27.6097 45.3442 27.5192 45.6157 27.3381C45.8872 27.1571 46.0682 26.8855 46.0682 26.4329C46.0682 25.9803 45.8872 25.7087 45.6157 25.5276C45.3442 25.3466 44.8917 25.256 44.2581 25.256H43.7151V27.6097Z" fill="#07B1FD"/>
<path d="M52.6753 27.3381L54.4854 23.8076H56.4766L53.5804 29.0581V32.4076H51.7702V29.0581L48.874 23.8076H50.8652L52.6753 27.3381Z" fill="#07B1FD"/>
<path d="M62.8116 30.054C62.8116 30.8688 62.5401 31.4119 61.997 31.8646C61.454 32.3172 60.6394 32.4982 59.6439 32.4982C58.7388 32.4982 57.9242 32.3172 57.2002 31.9551V30.2351C57.8337 30.5067 58.2863 30.6877 58.7388 30.7782C59.1913 30.8688 59.5534 30.9593 59.8249 30.9593C60.2774 30.9593 60.5489 30.8688 60.7299 30.6877C60.911 30.5067 61.092 30.3256 61.092 29.9635C61.092 29.7824 61.0015 29.6014 60.911 29.5109C60.8205 29.4203 60.6394 29.2393 60.4584 29.1488C60.2774 29.0582 59.9154 28.7867 59.2818 28.6056C58.7388 28.334 58.3768 28.153 58.1053 27.8814C57.8337 27.6098 57.6527 27.4288 57.4717 27.0667C57.2907 26.7046 57.2002 26.433 57.2002 25.9803C57.2002 25.2561 57.4717 24.6224 58.0148 24.1698C58.5578 23.7172 59.2818 23.5361 60.1869 23.5361C60.6394 23.5361 61.092 23.6267 61.454 23.7172C61.9065 23.8077 62.2686 23.9888 62.7211 24.1698L62.0875 25.6182C61.635 25.4372 61.273 25.2561 60.911 25.2561C60.5489 25.2561 60.2774 25.1656 60.0059 25.1656C59.6439 25.1656 59.3723 25.2561 59.1913 25.4372C59.0103 25.6182 58.9198 25.7993 58.9198 26.0709C58.9198 26.2519 58.9198 26.3424 59.0103 26.5235C59.1008 26.614 59.1913 26.7951 59.3723 26.8856C59.5534 26.9761 59.9154 27.1572 60.5489 27.5193C61.3635 27.8814 61.9065 28.334 62.2686 28.6961C62.6306 28.9677 62.8116 29.5109 62.8116 30.054Z" fill="#07B1FD"/>
<path d="M67.7899 32.4076H65.8893V25.3466H63.5361V23.8076H70.1431V25.3466H67.7899V32.4076Z" fill="#07B1FD"/>
<path d="M76.84 32.4073L76.2065 30.3252H73.0387L72.4052 32.4073H70.4141L73.4913 23.7168H75.7539L78.8311 32.4073H76.84ZM75.7539 28.8768C75.2109 26.9757 74.8489 25.98 74.7584 25.7084C74.6679 25.4368 74.6679 25.2557 74.5773 25.1652C74.4868 25.7084 74.0343 26.8852 73.4008 28.8768H75.7539Z" fill="#07B1FD"/>
<path d="M80.0078 32.4073V23.7168H81.9084V30.8684H85.4382V32.4073H80.0078Z" fill="#07B1FD"/>
<path d="M93.8553 32.4073L91.7736 25.6178H91.6831C91.7736 26.9757 91.7736 27.881 91.7736 28.4242V32.4073H90.1445V23.7168H92.6787L94.7603 30.3252L96.9325 23.7168H99.4667V32.4073H97.747V28.3336C97.747 28.1526 97.747 27.881 97.747 27.7C97.747 27.5189 97.747 26.7947 97.8376 25.7084H97.747L95.4844 32.4979H93.8553V32.4073Z" fill="#07B1FD"/>
<path d="M109.604 28.0624C109.604 29.5109 109.242 30.5972 108.518 31.3214C107.794 32.0456 106.798 32.4982 105.441 32.4982C104.083 32.4982 103.087 32.1361 102.363 31.3214C101.639 30.5067 101.277 29.4203 101.277 27.9719C101.277 26.5235 101.639 25.4372 102.363 24.713C103.087 23.9888 104.083 23.5361 105.441 23.5361C106.798 23.5361 107.794 23.8982 108.518 24.713C109.242 25.5277 109.604 26.7046 109.604 28.0624ZM103.268 28.0624C103.268 29.0582 103.449 29.7825 103.812 30.2351C104.174 30.6877 104.717 30.9593 105.441 30.9593C106.889 30.9593 107.703 29.9635 107.703 28.0624C107.703 26.0709 106.979 25.1656 105.531 25.1656C104.807 25.1656 104.264 25.4372 103.902 25.8898C103.54 26.3424 103.268 27.1572 103.268 28.0624Z" fill="#07B1FD"/>
<path d="M114.853 32.4076H112.953V25.3466H110.6V23.8076H117.207V25.3466H114.853V32.4076Z" fill="#07B1FD"/>
<path d="M126.529 28.0624C126.529 29.5109 126.167 30.5972 125.443 31.3214C124.719 32.0456 123.723 32.4982 122.365 32.4982C121.008 32.4982 120.012 32.1361 119.288 31.3214C118.564 30.5067 118.202 29.4203 118.202 27.9719C118.202 26.5235 118.564 25.4372 119.288 24.713C120.012 23.9888 121.008 23.5361 122.365 23.5361C123.723 23.5361 124.719 23.8982 125.443 24.713C126.167 25.5277 126.529 26.7046 126.529 28.0624ZM120.103 28.0624C120.103 29.0582 120.284 29.7825 120.646 30.2351C121.008 30.6877 121.551 30.9593 122.275 30.9593C123.723 30.9593 124.538 29.9635 124.538 28.0624C124.538 26.0709 123.814 25.1656 122.365 25.1656C121.641 25.1656 121.098 25.4372 120.736 25.8898C120.374 26.3424 120.103 27.1572 120.103 28.0624Z" fill="#07B1FD"/>
<path d="M130.149 29.1487V32.4981H128.248V23.8076H130.782C131.959 23.8076 132.864 23.9887 133.407 24.4413C133.95 24.8939 134.221 25.5276 134.221 26.4329C134.221 26.976 134.04 27.4287 133.769 27.7908C133.497 28.1529 133.045 28.515 132.592 28.696C133.95 30.5971 134.764 31.8645 135.127 32.4981H133.045L130.963 29.1487H130.149ZM130.149 27.6097H130.782C131.325 27.6097 131.778 27.5192 132.049 27.3381C132.321 27.1571 132.502 26.8855 132.502 26.4329C132.502 25.9803 132.321 25.7087 132.049 25.5276C131.778 25.3466 131.325 25.256 130.692 25.256H130.149V27.6097Z" fill="#07B1FD"/>
<path d="M141.643 30.054C141.643 30.8688 141.371 31.4119 140.828 31.8646C140.285 32.3172 139.47 32.4982 138.475 32.4982C137.57 32.4982 136.755 32.3172 136.031 31.9551V30.2351C136.665 30.5067 137.117 30.6877 137.57 30.7782C138.022 30.8688 138.384 30.9593 138.656 30.9593C139.108 30.9593 139.38 30.8688 139.561 30.6877C139.742 30.5067 139.923 30.3256 139.923 29.9635C139.923 29.7824 139.833 29.6014 139.742 29.5109C139.652 29.4203 139.47 29.2393 139.289 29.1488C139.108 29.0582 138.746 28.7867 138.113 28.6056C137.57 28.334 137.208 28.153 136.936 27.8814C136.665 27.6098 136.484 27.4288 136.303 27.0667C136.122 26.7046 136.031 26.433 136.031 25.9803C136.031 25.2561 136.303 24.6224 136.846 24.1698C137.389 23.7172 138.113 23.5361 139.018 23.5361C139.471 23.5361 139.923 23.6267 140.285 23.7172C140.738 23.8077 141.1 23.9888 141.552 24.1698L140.919 25.6182C140.466 25.4372 140.104 25.2561 139.742 25.2561C139.38 25.2561 139.108 25.1656 138.837 25.1656C138.475 25.1656 138.203 25.2561 138.022 25.4372C137.841 25.6182 137.751 25.7993 137.751 26.0709C137.751 26.2519 137.751 26.3424 137.841 26.5235C137.932 26.614 138.022 26.7951 138.203 26.8856C138.384 26.9761 138.746 27.1572 139.38 27.5193C140.195 27.8814 140.738 28.334 141.1 28.6961C141.462 28.9677 141.643 29.5109 141.643 30.054Z" fill="#07B1FD"/>
<path d="M37.2896 41.913L36.5656 40.193H34.3029L33.5789 41.913H32.9453L35.208 36.4814H35.751L38.0137 41.913H37.2896ZM36.3846 39.6499L35.751 37.9299C35.6605 37.7488 35.57 37.4772 35.4795 37.1151C35.389 37.3867 35.2985 37.5678 35.208 37.9299L34.5744 39.6499H36.3846Z" fill="#07B1FD"/>
<path d="M38.7373 36.4814H40.3664C41.0905 36.4814 41.6335 36.572 41.9955 36.8436C42.3576 37.0246 42.5386 37.3867 42.5386 37.8393C42.5386 38.2014 42.4481 38.3825 42.267 38.6541C42.086 38.8351 41.8145 39.0162 41.4525 39.0162C42.267 39.1972 42.7196 39.5593 42.7196 40.2835C42.7196 40.7362 42.5386 41.1888 42.1765 41.4604C41.8145 41.732 41.362 41.913 40.7284 41.913H38.7373V36.4814ZM39.3708 38.8351H40.4569C40.9095 38.8351 41.2715 38.7446 41.4525 38.6541C41.6335 38.5636 41.724 38.292 41.724 37.9299C41.724 37.6583 41.6335 37.3867 41.362 37.2962C41.0905 37.2057 40.7284 37.1151 40.2759 37.1151H39.2803V38.8351H39.3708ZM39.3708 39.3783V41.3699H40.5474C41 41.3699 41.362 41.2793 41.543 41.0983C41.8145 40.9172 41.905 40.6457 41.905 40.2835C41.905 39.9214 41.8145 39.7404 41.543 39.5593C41.2715 39.3783 40.9095 39.2878 40.4569 39.2878H39.3708V39.3783Z" fill="#07B1FD"/>
<path d="M45.6165 41.913H44.983V37.0246H43.1729V36.4814H47.4266V37.0246H45.6165V41.913Z" fill="#07B1FD"/>
<path d="M53.2191 39.1979C53.2191 40.1032 52.9476 40.7369 52.495 41.28C52.0425 41.7327 51.409 42.0042 50.5944 42.0042C49.7798 42.0042 49.1463 41.7327 48.6938 41.28C48.2412 40.7369 47.9697 40.1032 47.9697 39.1979C47.9697 38.2927 48.2412 37.659 48.6938 37.1158C49.1463 36.5727 49.7798 36.3916 50.5944 36.3916C51.409 36.3916 52.0425 36.6632 52.495 37.1158C52.9476 37.5684 53.2191 38.2927 53.2191 39.1979ZM48.6938 39.1979C48.6938 39.9221 48.8748 40.4653 49.1463 40.8274C49.5083 41.1895 49.9609 41.3705 50.5944 41.3705C51.2279 41.3705 51.6805 41.1895 52.0425 40.8274C52.4045 40.4653 52.495 39.9221 52.495 39.1979C52.495 38.4737 52.314 37.9305 52.0425 37.5684C51.6805 37.2063 51.2279 37.0253 50.5944 37.0253C49.9609 37.0253 49.5083 37.2063 49.1463 37.5684C48.7843 37.9305 48.6938 38.4737 48.6938 39.1979Z" fill="#07B1FD"/>
<path d="M56.93 41.913L55.0294 37.1151C55.0294 37.4772 55.1199 37.9299 55.1199 38.473V41.913H54.4863V36.4814H55.4819L57.292 40.9172L59.1021 36.4814H60.0977V41.913H59.4642V38.473C59.4642 38.1109 59.4642 37.6583 59.5547 37.2057L57.654 42.0036H56.93V41.913Z" fill="#07B1FD"/>
<path d="M66.5228 39.1979C66.5228 40.1032 66.2513 40.7369 65.7988 41.28C65.3462 41.7327 64.7127 42.0042 63.8981 42.0042C63.0836 42.0042 62.45 41.7327 61.9975 41.28C61.545 40.8274 61.2734 40.1032 61.2734 39.1979C61.2734 38.2927 61.545 37.659 61.9975 37.1158C62.45 36.5727 63.0836 36.3916 63.8981 36.3916C64.7127 36.3916 65.3462 36.6632 65.7988 37.1158C66.2513 37.5684 66.5228 38.2927 66.5228 39.1979ZM61.9975 39.1979C61.9975 39.9221 62.1785 40.4653 62.45 40.8274C62.812 41.1895 63.2646 41.3705 63.8981 41.3705C64.5317 41.3705 64.9842 41.1895 65.3462 40.8274C65.7082 40.4653 65.7988 39.9221 65.7988 39.1979C65.7988 38.4737 65.6177 37.9305 65.3462 37.5684C64.9842 37.2063 64.5317 37.0253 63.8981 37.0253C63.2646 37.0253 62.812 37.2063 62.45 37.5684C62.088 37.9305 61.9975 38.4737 61.9975 39.1979Z" fill="#07B1FD"/>
<path d="M71.411 40.2842C71.411 40.8274 71.2299 41.1895 70.8679 41.4611C70.5059 41.7326 70.0534 41.8232 69.3293 41.8232H67.7002V36.3916H71.0489V36.9348H68.3337V38.6548H69.2388C69.7818 38.6548 70.1439 38.7453 70.4154 38.8358C70.6869 38.9263 70.9584 39.1074 71.1394 39.2884C71.411 39.6505 71.411 39.9221 71.411 40.2842ZM68.4242 41.3705H69.3293C69.7818 41.3705 70.1439 41.28 70.4154 41.099C70.5964 40.9179 70.7774 40.6463 70.7774 40.2842C70.7774 39.9221 70.6869 39.6505 70.4154 39.56C70.1439 39.379 69.7818 39.379 69.2388 39.379H68.4242V41.3705Z" fill="#07B1FD"/>
<path d="M72.6777 36.4814H73.3113V39.4688C73.3113 40.012 73.3113 40.5551 73.2208 41.0078L76.3885 36.4814H77.1125V41.913H76.479V38.9257C76.479 38.473 76.479 37.9299 76.5695 37.3867L73.4018 41.913H72.6777V36.4814Z" fill="#07B1FD"/>
<path d="M82.7236 41.913H82.09V37.0246H80.2799L80.1894 37.9299C80.0084 39.1067 79.9179 40.012 79.7369 40.5551C79.5559 41.0983 79.4654 41.4604 79.2844 41.732C79.1033 41.913 78.8318 42.0941 78.4698 42.0036C78.2888 42.0036 78.1078 42.0035 77.9268 41.913V41.3699C78.1078 41.4604 78.1983 41.4604 78.3793 41.4604C78.5603 41.4604 78.6508 41.3699 78.7413 41.2793C78.8318 41.1888 78.9223 41.0078 79.0128 40.7362C79.1033 40.4646 79.1938 40.012 79.2844 39.1972C79.3749 38.473 79.5559 37.5678 79.6464 36.4814H82.7236V41.913Z" fill="#07B1FD"/>
<path d="M84.2627 36.4814H84.8962V39.4688C84.8962 40.012 84.8962 40.5551 84.8057 41.0078L87.9735 36.4814H88.6975V41.913H88.064V38.9257C88.064 38.473 88.064 37.9299 88.1545 37.3867L84.9868 41.913H84.2627V36.4814Z" fill="#07B1FD"/>
<path d="M94.7611 36.9345C94.1275 36.9345 93.675 37.1155 93.313 37.5682C92.951 37.9303 92.77 38.4734 92.77 39.1976C92.77 39.9218 92.951 40.465 93.313 40.8271C93.675 41.1892 94.1275 41.3703 94.7611 41.3703C95.1231 41.3703 95.5756 41.2797 96.1187 41.1892V41.7324C95.7567 41.9134 95.2136 41.9134 94.6706 41.9134C93.856 41.9134 93.2225 41.6418 92.77 41.1892C92.3174 40.7366 92.0459 40.0124 92.0459 39.1071C92.0459 38.5639 92.1364 38.0208 92.4079 37.6587C92.5889 37.206 92.951 36.9345 93.313 36.6629C93.7655 36.3913 94.2181 36.3008 94.7611 36.3008C95.3946 36.3008 95.8472 36.3913 96.2997 36.5724L96.0282 37.1155C95.6662 37.1155 95.2136 36.9345 94.7611 36.9345Z" fill="#07B1FD"/>
<path d="M103.631 41.913H102.998V37.0246H100.101V41.913H99.4678V36.4814H103.722V41.913H103.631Z" fill="#07B1FD"/>
<path d="M108.79 38.0211C108.79 38.5642 108.608 39.0169 108.246 39.2884C107.884 39.56 107.341 39.7411 106.527 39.7411H105.893V41.8232H105.26V36.3916H106.708C108.065 36.4821 108.79 37.0253 108.79 38.0211ZM105.893 39.1979H106.527C107.07 39.1979 107.522 39.1074 107.794 38.9263C108.065 38.7453 108.156 38.4737 108.156 38.0211C108.156 37.659 108.065 37.3874 107.794 37.2063C107.522 37.0253 107.16 36.9348 106.617 36.9348H105.893V39.1979Z" fill="#07B1FD"/>
<path d="M114.854 39.1979C114.854 40.1032 114.582 40.7369 114.13 41.28C113.677 41.7327 113.044 42.0042 112.229 42.0042C111.415 42.0042 110.781 41.7327 110.329 41.28C109.876 40.8274 109.604 40.1032 109.604 39.1979C109.604 38.2927 109.876 37.659 110.329 37.1158C110.781 36.5727 111.415 36.3916 112.229 36.3916C113.044 36.3916 113.677 36.6632 114.13 37.1158C114.582 37.5684 114.854 38.2927 114.854 39.1979ZM110.419 39.1979C110.419 39.9221 110.6 40.4653 110.872 40.8274C111.234 41.1895 111.686 41.3705 112.32 41.3705C112.953 41.3705 113.406 41.1895 113.768 40.8274C114.13 40.4653 114.22 39.9221 114.22 39.1979C114.22 38.4737 114.039 37.9305 113.768 37.5684C113.406 37.2063 112.953 37.0253 112.32 37.0253C111.686 37.0253 111.234 37.2063 110.872 37.5684C110.51 37.9305 110.419 38.4737 110.419 39.1979Z" fill="#07B1FD"/>
<path d="M119.831 40.2842C119.831 40.8274 119.65 41.1895 119.288 41.4611C118.926 41.7326 118.473 41.8232 117.749 41.8232H116.12V36.3916H119.469V36.9348H116.754V38.6548H117.659C118.202 38.6548 118.564 38.7453 118.835 38.8358C119.107 38.9263 119.378 39.1074 119.559 39.2884C119.74 39.6505 119.831 39.9221 119.831 40.2842ZM116.844 41.3705H117.749C118.202 41.3705 118.564 41.28 118.835 41.099C119.016 40.9179 119.197 40.6463 119.197 40.2842C119.197 39.9221 119.107 39.6505 118.835 39.56C118.564 39.379 118.202 39.379 117.659 39.379H116.844V41.3705Z" fill="#07B1FD"/>
<path d="M124.176 41.913H121.008V36.4814H124.176V37.0246H121.641V38.7446H123.995V39.2878H121.641V41.2793H124.176V41.913Z" fill="#07B1FD"/>
<path d="M128.61 36.4821V37.0253H126.076V41.8232H125.442V36.3916H128.61V36.4821Z" fill="#07B1FD"/>
<path d="M134.494 39.1979C134.494 40.1032 134.222 40.7369 133.769 41.28C133.317 41.7327 132.683 42.0042 131.869 42.0042C131.054 42.0042 130.421 41.7327 129.968 41.28C129.516 40.8274 129.244 40.1032 129.244 39.1979C129.244 38.2927 129.516 37.659 129.968 37.1158C130.421 36.5727 131.054 36.3916 131.869 36.3916C132.683 36.3916 133.317 36.6632 133.769 37.1158C134.222 37.5684 134.494 38.2927 134.494 39.1979ZM129.968 39.1979C129.968 39.9221 130.149 40.4653 130.421 40.8274C130.783 41.1895 131.235 41.3705 131.869 41.3705C132.502 41.3705 132.955 41.1895 133.317 40.8274C133.679 40.4653 133.769 39.9221 133.769 39.1979C133.769 38.4737 133.588 37.9305 133.317 37.5684C132.955 37.2063 132.502 37.0253 131.869 37.0253C131.235 37.0253 130.783 37.2063 130.421 37.5684C130.059 37.9305 129.968 38.4737 129.968 39.1979Z" fill="#07B1FD"/>
<path d="M138.204 41.913L136.304 37.1151C136.304 37.4772 136.394 37.9299 136.394 38.473V41.913H135.761V36.4814H136.756L138.566 40.9172L140.377 36.4814H141.372V41.913H140.739V38.473C140.739 38.1109 140.739 37.6583 140.829 37.2057L138.928 42.0036H138.204V41.913Z" fill="#07B1FD"/>
<path d="M47.335 15.0273L49.6881 21.2737H55.1185L47.335 15.0273Z" fill="#07B1FD"/>
<path d="M52.9463 4.97852H54.0324L56.0235 9.50483H54.9374L52.9463 4.97852Z" fill="#07B1FD"/>
<path d="M57.291 5.15918H58.1961L59.4632 9.50444H58.5581L57.291 5.15918Z" fill="#07B1FD"/>
<path d="M61.3633 5.43066H62.2684L62.6304 9.77593L61.7253 9.6854L61.3633 5.43066Z" fill="#07B1FD"/>
<path d="M65.165 6.24609L66.0701 6.33662V10.3198L65.165 9.95767V6.24609Z" fill="#07B1FD"/>
<path d="M22.8985 36.482L3.9827 35.7578L1.81055 42.0947H21.903C22.084 40.1936 22.446 38.2925 22.8985 36.482Z" fill="#07B1FD"/>
<path d="M33.7594 17.8333L21.722 10.4102L19.0068 13.1259L31.1347 20.4586C31.9492 19.5533 32.8543 18.6481 33.7594 17.8333Z" fill="#07B1FD"/>
<path d="M81.4559 19.0099L85.0762 14.3931L83.3566 13.0352L79.7363 17.5615C80.2794 18.0141 80.9129 18.4667 81.4559 19.0099Z" fill="#07B1FD"/>
<path d="M53.128 9.86689L48.8742 0.452148L45.2539 1.35741L49.4172 10.5006C50.5938 10.229 51.8609 9.95741 53.128 9.86689Z" fill="#07B1FD"/>
<path d="M70.6862 12.1301L71.0482 4.88798L68.7855 4.07324L68.333 11.3153C69.1476 11.5869 69.8716 11.8585 70.6862 12.1301Z" fill="#07B1FD"/>
<path d="M23.7135 33.8562L12.2192 32.5889L11.4951 33.6752L23.2609 35.0331C23.442 34.671 23.5325 34.3089 23.7135 33.8562Z" fill="#07B1FD"/>
<path d="M24.6183 29.6016L14.2101 27.5195L13.3955 28.5153L24.0753 30.688C24.2563 30.3258 24.4373 29.9637 24.6183 29.6016Z" fill="#07B1FD"/>
<path d="M26.9717 25.4377L17.1971 22.1787L16.292 23.084L26.3382 26.4335C26.6097 26.0713 26.7907 25.7998 26.9717 25.4377Z" fill="#07B1FD"/>
<path d="M29.4149 21.6354L21.0883 17.9238L20.0928 18.7386L28.6909 22.5407C28.8719 22.2691 29.1434 21.907 29.4149 21.6354Z" fill="#07B1FD"/>
<path d="M40.6375 13.5787L35.4787 8.05664L34.3926 8.41875L39.6419 14.1219C40.004 13.9409 40.366 13.7598 40.6375 13.5787Z" fill="#07B1FD"/>
<path d="M36.3835 16.0223L29.867 10.8623L28.6904 11.4055L35.2974 16.7465C35.6594 16.4749 36.0214 16.2034 36.3835 16.0223Z" fill="#07B1FD"/>
<path d="M73.0392 13.0354L74.0347 8.96171L73.2202 8.59961L72.2246 12.6733C72.4961 12.7638 72.7676 12.9449 73.0392 13.0354Z" fill="#07B1FD"/>
<path d="M75.2117 14.2118L76.5693 10.4097L75.9357 9.95703L74.5781 13.9402C74.7591 13.9402 75.0307 14.0307 75.2117 14.2118Z" fill="#07B1FD"/>
<path d="M78.8318 16.4749L80.5514 13.4875L80.0084 12.9443L78.1982 16.0222C78.3793 16.2033 78.5603 16.2938 78.8318 16.4749Z" fill="#07B1FD"/>
<path d="M47.3351 10.6817L44.3484 5.88379H43.4434L46.6111 10.8627C46.8826 10.7722 47.1541 10.7722 47.3351 10.6817Z" fill="#07B1FD"/>
<path d="M77.0209 15.2077L78.65 11.9487L78.0165 11.4961L76.2969 14.8456C76.5684 14.9361 76.7494 15.1171 77.0209 15.2077Z" fill="#07B1FD"/>
<path d="M44.349 11.9491L40.2762 6.78906L39.0996 6.97011L43.3534 12.4017C43.7154 12.2206 44.0775 12.0396 44.349 11.9491Z" fill="#07B1FD"/>
</svg>
