<svg width="143" height="65" viewBox="0 0 143 65" fill="none" xmlns="http://www.w3.org/2000/svg">
<g clip-path="url(#clip0_739_3562)">
<path d="M0.200012 17C0.200012 26.3 7.80001 33.9 17.1 33.9C26.4 33.9 34 26.3 34 17C34 7.69998 26.4 0.0999756 17.1 0.0999756C7.70001 0.199976 0.200012 7.69998 0.200012 17Z" fill="#949494" stroke="#949494" stroke-width="0.3"/>
<path d="M0.200012 42.9C0.200012 45.4 7.80001 47.4 17.1 47.4C26.4 47.4 34 45.4 34 42.9C34 40.4 26.4 38.4 17.1 38.4C7.70001 38.4 0.200012 40.4 0.200012 42.9Z" fill="#949494" stroke="#949494" stroke-width="0.3"/>
<path d="M17 51.9C29.1 51.9 33.9 53.1 33.9 54.7C33.9 56.3 29.2 57.5 17 57.5C4.80001 57.5 0.100006 56.3 0.100006 54.7C0.200006 53.1 4.90001 51.9 17 51.9Z" fill="#949494" stroke="#949494" stroke-width="0.3"/>
<path d="M17 62C32 62 33.9 62.3 33.9 63.1C33.9 63.9 32 64.2 17 64.2C2.00001 64.2 0.100006 63.9 0.100006 63.1C0.200006 62.3 2.00001 62 17 62Z" fill="#949494" stroke="#949494" stroke-width="0.3"/>
<path d="M54.1 42.0999C55.5 42.0999 57.1 42.4999 58.4 43.0999L59 46.7999H61V41.4C59.7 40.9 57.4 40.2 54.4 40.2C50.1 40.2 47.3 41.5999 45.7 43.0999C43.7 44.8999 41.9 47.8999 41.9 52.2999C41.9 57 44 59.9 45.1 61C47.8 64 51.2 64.6999 54.1 64.6999C56.4 64.6999 58.9 64.2 61.1 63.5V57.9H59.1L58.2 62.2999C57.1 62.5999 55.7 62.7999 54.6 62.7999C50.9 62.7999 48.9 61.1 47.7 59.7C46.4 58.1 45.5 55.5999 45.5 52.2999C45.5 49.4999 46.2 46.6 47.9 44.7C49 43.3 51.1 42.0999 54.1 42.0999Z" fill="#949494"/>
<path d="M83.4 42.9C85.8 45.1 87.3 48.4 87.3 52.5C87.3 56.3 86 59.4 84.1 61.4C82.6 63.1 79.9 64.9 75.9 64.9C72.3 64.9 69.6 63.4 67.8 61.6C66.4 60.2 64.5 57.3 64.5 52.5C64.5 47.6 66.5 44.6 68.4 42.9C69.8 41.7 72.2 40.2 75.9 40.2C79.3 40.1 81.7 41.3 83.4 42.9ZM70.9 44C69.1 45.8 68.2 48.9 68.2 52.4C68.2 53.8 68.3 57.3 70.2 59.9C71.9 62.4 74.3 63 75.9 63C77.2 63 79.6 62.6 81.5 60.2C83.4 57.6 83.6 54 83.6 52.6C83.6 49 82.6 45.9 81 44.2C79.2 42.2 76.9 42.1 75.9 42.1C73.5 41.9 71.9 43 70.9 44Z" fill="#949494"/>
<path d="M118.9 42.8C117.6 41.6 115.2 40.1 111.6 40.1C108.6 40.1 106 41.2 104.2 42.8C101.3 45.4 100.7 49.3 100.5 51.5H95.6V42.3L98.4 42.1V40.7H89.8V42.1L92.4 42.3V62.6L89.8 62.8V64.2H98.4V62.8L95.6 62.6V53.1H100.5C100.7 56.6 102.1 59.7 103.6 61.5C105 63.1 107.5 64.8 111.4 64.8C115.5 64.8 118 63 119.5 61.3C121.4 59.2 122.6 56.1 122.6 52.4C122.6 48.3 121.1 44.9 118.9 42.8ZM116.9 60.1C115.5 62 113.5 62.9 111.5 62.9C109.8 62.9 107.5 62.3 105.9 59.8C104.6 57.8 104 54.9 104 52.3C104 49.6 104.7 46 106.6 43.9C107.8 42.6 109.4 41.8 111.6 41.8C113.5 41.8 115 42.4 116.3 43.9C118.2 46 118.8 49.5 118.8 52.4C118.9 55.2 118.3 58.1 116.9 60.1Z" fill="#949494"/>
<path d="M130.6 51.1V53.2L133.6 52.8C134.9 52.8 136.9 52.9 138.2 54.3C138.9 55 139.4 56.1 139.4 57.8C139.4 59.4 138.9 60.8 137.3 61.8C136 62.7 134.2 62.9 132.8 62.9C131.2 62.9 129.8 62.5 128.7 61.9L128.1 57.4H126.1V63.6C129.3 64.7 132 64.7 132.9 64.7C135 64.7 138.1 64.2 140.1 62.8C142.1 61.4 142.9 59.5 142.9 57.3C142.9 55.9 142.5 54.5 141.2 53.3C140 52.2 138.2 51.7 136.7 51.6V51.5C137.9 51.2 139.3 50.5 140.2 49.6C141.4 48.4 141.7 47.2 141.7 46C141.7 43.5 140.5 42.1 139.1 41.2C137.5 40.3 135.4 40.1 133.3 40.1C132.1 40.1 129.9 40.2 126.9 41.1V46.6H128.9L129.3 42.8C130.7 42.2 132.3 41.9 133.3 41.9C134.6 41.9 135.8 42.1 136.9 43.1C137.7 43.8 138.3 44.9 138.3 46.4C138.3 47.7 137.9 49 136.6 50C135.7 50.8 134.6 51.1 133.5 51.2L130.6 51.1Z" fill="#949494"/>
<path d="M57.6 19.4C55.8 18.2 53.5 18 51.5 18C51.1 18 49.5 18 47.5 18.2V9.6H56.5L57.1 13.1H59.1V8H41.8V9.4L44.4 9.6V30L41.8 30.2V31.6H51.1C53 31.6 56 31.4 58 29.7C59.9 28.2 60.3 26.2 60.3 24.7C60.3 22.3 59.4 20.6 57.6 19.4ZM55.3 28.6C53.9 30 51.7 30 50.1 30C49.3 30 48.4 30 47.5 29.9V19.9C48.6 19.7 49.9 19.6 51 19.6C52.5 19.6 54.2 19.8 55.4 21C56.5 22.2 56.7 23.7 56.7 24.8C56.8 25.9 56.5 27.5 55.3 28.6Z" fill="#949494"/>
<path d="M84.6 29.8L76.2 7.79999H73.9L65.7 29.8L62.8 30.2V31.6H70.6V30.2L67.7 30L70.4 22.8H78.7L81.4 30L78.8 30.2V31.6H86.8V30.2L84.6 29.8ZM70.9 21.2L74.4 11.5L78 21.2H70.9Z" fill="#949494"/>
<path d="M114.9 9.5V8H106.3V9.5L109.1 9.7V18.9H97V9.7L99.8 9.5V8H91.2V9.5L93.8 9.7V30L91.2 30.2V31.6H99.8V30.2L97 30V20.5H109.1V30L106.3 30.2V31.6H114.9V30.2L112.3 30V9.7L114.9 9.5Z" fill="#949494"/>
<path d="M140.3 30L132.3 18.5L139.7 9.7L142.1 9.5V8H134.7V9.5L137.3 9.7L129.6 19H127V9.7L129.8 9.5V8H121.2V9.5L123.9 9.7V30L121.2 30.2V31.6H129.8V30.2L127 30V20.5H129.9L137.8 31.6H143V30.2L140.3 30Z" fill="#949494"/>
</g>
<defs>
<clipPath id="clip0_739_3562">
<rect width="143" height="64.8" fill="white"/>
</clipPath>
</defs>
</svg>
