<svg width="207" height="48" viewBox="0 0 207 48" fill="none" xmlns="http://www.w3.org/2000/svg">
<mask id="mask0_739_3531" style="mask-type:alpha" maskUnits="userSpaceOnUse" x="0" y="0" width="207" height="48">
<path d="M67.1714 13.7614C67.2106 13.0172 67.3934 12.4907 67.7154 12.1686C68.0331 11.851 68.5118 11.6899 69.1515 11.6899H79.291C80.6097 11.6899 81.271 12.3819 81.271 13.7614V32.8089C81.271 33.0352 81.2318 33.1832 81.1492 33.2442C81.0665 33.305 80.9098 33.3356 80.6836 33.3356H78.055C77.8506 33.3356 77.7026 33.305 77.6069 33.2442C77.5155 33.1832 77.4676 33.0352 77.4676 32.8089V14.9972H70.6353L70.4482 17.691C70.2829 19.9975 70.1175 22.0602 69.9434 23.8748C69.7694 25.6896 69.4692 27.2648 69.0383 28.6052C68.6118 29.9499 67.9852 31.0509 67.1671 31.9125C66.3489 32.7785 65.2132 33.4313 63.7727 33.8665C63.5682 33.9057 63.3984 33.9012 63.2635 33.849C63.133 33.7967 63.0242 33.6576 62.9415 33.4313L62.2888 31.6035C62.2496 31.4163 62.2409 31.2641 62.2757 31.1423C62.3062 31.016 62.4323 30.9029 62.663 30.8028C63.5247 30.4285 64.2036 29.9542 64.6866 29.3755C65.1696 28.8011 65.5482 28.0263 65.8137 27.0603C66.0835 26.0899 66.2836 24.8757 66.4185 23.4265C66.5534 21.9731 66.7015 20.1759 66.8668 18.0305L67.1714 13.7614Z" fill="#0039A6"/>
<path d="M99.3245 25.139C99.3245 27.8805 98.6892 29.9869 97.4228 31.4621C96.1521 32.9329 94.2635 33.6728 91.7482 33.6728C89.2546 33.6728 87.3965 32.9547 86.1649 31.523C84.9378 30.0913 84.3285 27.9938 84.3285 25.2304C84.3285 23.8726 84.5113 22.6629 84.8855 21.6141C85.2555 20.5653 85.7733 19.6775 86.4304 18.9552C87.0919 18.2328 87.8752 17.6845 88.7977 17.3015C89.7116 16.9229 90.7298 16.7314 91.8439 16.7314C94.2939 16.7314 96.1564 17.4799 97.4272 18.9725C98.6935 20.4653 99.3245 22.5235 99.3245 25.139ZM95.6473 25.2304C95.6473 24.4862 95.5951 23.7769 95.4776 23.1154C95.3645 22.4496 95.1686 21.8665 94.8901 21.3574C94.6116 20.8481 94.2331 20.4522 93.7456 20.1606C93.2626 19.8691 92.6491 19.7254 91.9049 19.7254C91.2477 19.7254 90.669 19.8648 90.1728 20.1431C89.6811 20.4216 89.2677 20.8003 88.9369 21.279C88.6063 21.7577 88.3669 22.3234 88.2103 22.9893C88.0579 23.6507 87.9797 24.3644 87.9797 25.1304C87.9797 26.8536 88.258 28.207 88.8108 29.1862C89.3678 30.174 90.3556 30.6657 91.7786 30.6657C92.501 30.6657 93.1102 30.5178 93.602 30.2132C94.0982 29.9173 94.4941 29.5168 94.7944 29.0164C95.0903 28.5202 95.3078 27.9458 95.4429 27.2931C95.5777 26.6446 95.6473 25.9572 95.6473 25.2304Z" fill="#0039A6"/>
<path d="M133.188 25.139C133.188 27.8805 132.557 29.9869 131.286 31.4621C130.02 32.9329 128.126 33.6728 125.611 33.6728C123.118 33.6728 121.255 32.9547 120.028 31.523C118.805 30.0913 118.191 27.9938 118.191 25.2304C118.191 23.8726 118.379 22.6629 118.748 21.6141C119.118 20.5653 119.636 19.6775 120.293 18.9552C120.95 18.2328 121.742 17.6845 122.661 17.3015C123.579 16.9229 124.597 16.7314 125.707 16.7314C128.161 16.7314 130.02 17.4799 131.29 18.9725C132.557 20.4653 133.188 22.5235 133.188 25.139ZM129.515 25.2304C129.515 24.4862 129.454 23.7769 129.345 23.1154C129.227 22.4496 129.032 21.8665 128.757 21.3574C128.479 20.8481 128.092 20.4522 127.613 20.1606C127.13 19.8691 126.516 19.7254 125.777 19.7254C125.119 19.7254 124.536 19.8648 124.044 20.1431C123.553 20.4216 123.139 20.8003 122.809 21.279C122.478 21.7577 122.23 22.3234 122.077 22.9893C121.925 23.6507 121.847 24.3644 121.847 25.1304C121.847 26.8536 122.125 28.207 122.678 29.1862C123.239 30.174 124.223 30.6657 125.646 30.6657C126.368 30.6657 126.978 30.5178 127.474 30.2132C127.965 29.9173 128.361 29.5168 128.666 29.0164C128.962 28.5202 129.18 27.9458 129.31 27.2931C129.445 26.6446 129.515 25.9572 129.515 25.2304Z" fill="#0039A6"/>
<path d="M138.533 33.3356C137.872 33.3356 137.419 33.2007 137.171 32.9308C136.923 32.6653 136.797 32.2215 136.797 31.6035V13.7918C136.797 12.3906 137.454 11.6899 138.777 11.6899H150.434C150.661 11.6899 150.805 11.7378 150.866 11.8292C150.931 11.9206 150.957 12.0816 150.957 12.3079V14.4097C150.957 14.6144 150.931 14.7579 150.866 14.8407C150.805 14.9233 150.661 14.9625 150.434 14.9625H140.6V19.7537H145.675C146.849 19.7537 147.846 19.8712 148.668 20.1106C149.495 20.3456 150.188 20.6633 150.757 21.0549C151.323 21.4466 151.775 21.8861 152.119 22.3691C152.459 22.8521 152.72 23.3526 152.894 23.8705C153.068 24.3839 153.181 24.8801 153.233 25.3544C153.281 25.8287 153.311 26.2509 153.311 26.6208C153.311 27.5868 153.121 28.4877 152.738 29.3102C152.359 30.1327 151.836 30.8463 151.179 31.4425C150.522 32.0387 149.747 32.5 148.86 32.8351C147.976 33.1658 147.028 33.3268 146.018 33.3268H138.533V33.3356ZM149.386 26.3901C149.386 25.4066 149.073 24.5842 148.441 23.914C147.811 23.2482 146.902 22.9131 145.705 22.9131H140.6V29.9325H145.643C146.384 29.9325 146.992 29.815 147.467 29.5756C147.942 29.3406 148.319 29.049 148.612 28.6966C148.903 28.3485 149.099 27.9655 149.216 27.5433C149.33 27.1299 149.386 26.7427 149.386 26.3901Z" fill="#0039A6"/>
<path d="M169.642 31.5666C169.642 32.0626 169.445 32.4064 169.053 32.5848C168.597 32.7937 168.109 32.9678 167.583 33.1114C167.056 33.2594 166.512 33.3681 165.96 33.4508C165.407 33.5336 164.85 33.5944 164.302 33.6205C163.759 33.6554 163.236 33.6728 162.744 33.6728C161.382 33.6728 160.254 33.5291 159.359 33.2551C158.458 32.9765 157.748 32.6022 157.221 32.141C156.694 31.6753 156.33 31.1314 156.125 30.5003C155.917 29.8693 155.812 29.2078 155.812 28.5029C155.812 27.7848 155.934 27.0886 156.169 26.4183C156.403 25.7482 156.795 25.1608 157.326 24.656C157.861 24.1512 158.563 23.7421 159.415 23.4331C160.272 23.1242 161.316 22.9718 162.553 22.9718H166.017V22.4453C166.017 22.0536 165.977 21.6924 165.895 21.3617C165.812 21.0354 165.651 20.7438 165.412 20.4957C165.176 20.2476 164.85 20.0605 164.442 19.9256C164.033 19.7907 163.493 19.7254 162.836 19.7254C162.13 19.7254 161.369 19.7864 160.546 19.9082C159.719 20.0344 159.049 20.178 158.535 20.3434C158.31 20.4043 158.144 20.4173 158.04 20.3739C157.936 20.3347 157.865 20.2215 157.827 20.0344L157.396 18.2763C157.313 17.9455 157.405 17.7323 157.67 17.6278C158.535 17.3015 159.484 17.0665 160.516 16.9316C161.547 16.801 162.517 16.7314 163.423 16.7314C165.568 16.7314 167.139 17.2058 168.135 18.1545C169.141 19.1031 169.637 20.4826 169.637 22.2972V31.5666H169.642ZM165.99 25.7264H163.022C162.674 25.7264 162.292 25.7482 161.892 25.7874C161.491 25.8309 161.108 25.9441 160.747 26.1268C160.385 26.3096 160.085 26.5795 159.85 26.9319C159.614 27.2845 159.494 27.7675 159.494 28.3853C159.494 29.2731 159.794 29.8912 160.385 30.2393C160.986 30.5917 161.778 30.7657 162.766 30.7657C162.913 30.7657 163.11 30.7614 163.367 30.7484C163.624 30.7353 163.898 30.7135 164.189 30.67C164.476 30.6266 164.78 30.5786 165.099 30.5133C165.416 30.4525 165.711 30.3698 165.981 30.2697V25.7264H165.99Z" fill="#0039A6"/>
<path d="M177.09 33.2262C176.985 33.2958 176.811 33.335 176.567 33.335H174.33C174.104 33.335 173.939 33.2915 173.825 33.2088C173.716 33.1262 173.656 32.9607 173.656 32.7171V17.6905C173.656 17.4643 173.712 17.3076 173.825 17.2249C173.939 17.1423 174.108 17.0986 174.33 17.0986H176.567C176.811 17.0986 176.985 17.1378 177.09 17.2074C177.195 17.2771 177.242 17.4381 177.242 17.6861V23.1867H184.078V17.6905C184.078 17.4643 184.135 17.3076 184.249 17.2249C184.356 17.1423 184.527 17.0986 184.758 17.0986H187.011C187.281 17.0986 187.456 17.1378 187.537 17.2074C187.621 17.2771 187.664 17.4381 187.664 17.6861V32.7128C187.664 32.9826 187.621 33.1523 187.537 33.2219C187.456 33.2915 187.281 33.3307 187.011 33.3307H184.758C184.527 33.3307 184.356 33.2872 184.249 33.2045C184.131 33.1217 184.078 32.9564 184.078 32.7128V26.1285H177.242V32.7128C177.242 32.9869 177.195 33.1566 177.09 33.2262Z" fill="#0039A6"/>
<path d="M206.546 32.7649L201.307 24.7273L206.028 17.7167C206.115 17.6122 206.132 17.4686 206.081 17.3467C206.028 17.2249 205.903 17.1423 205.772 17.1423H202.564C202.465 17.1423 202.373 17.1857 202.308 17.2641L198.16 23.252H195.235V17.5948C195.235 17.3685 195.197 17.2249 195.113 17.177C195.032 17.1247 194.888 17.0986 194.679 17.0986H192.203C192.015 17.0986 191.881 17.1247 191.784 17.177C191.694 17.2249 191.645 17.3641 191.645 17.5948V32.8389C191.645 33.0652 191.694 33.2001 191.784 33.2566C191.876 33.3046 192.015 33.335 192.203 33.335H194.679C194.888 33.335 195.032 33.3089 195.113 33.2566C195.197 33.2045 195.235 33.0652 195.235 32.8389V26.0676H197.96L202.721 33.2088C202.79 33.2872 202.882 33.3394 202.987 33.3394H206.284C206.419 33.3394 206.541 33.2611 206.599 33.1392C206.65 33.013 206.633 32.8693 206.546 32.7649Z" fill="#0039A6"/>
<path d="M117.284 32.7649L112.04 24.7273L116.757 17.7167C116.849 17.6122 116.87 17.4686 116.809 17.3467C116.757 17.2249 116.635 17.1423 116.5 17.1423H113.297C113.197 17.1423 113.102 17.1857 113.041 17.2641L108.889 23.252H105.969V17.5948C105.969 17.3685 105.926 17.2249 105.843 17.177C105.76 17.1247 105.617 17.0986 105.412 17.0986H102.94C102.753 17.0986 102.614 17.1247 102.523 17.177C102.431 17.2249 102.383 17.3641 102.383 17.5948V32.8389C102.383 33.0652 102.431 33.2001 102.523 33.2566C102.614 33.3046 102.753 33.335 102.94 33.335H105.412C105.621 33.335 105.765 33.3089 105.843 33.2566C105.926 33.2045 105.969 33.0652 105.969 32.8389V26.0676H108.693L113.458 33.2088C113.524 33.2872 113.62 33.3394 113.724 33.3394H117.023C117.153 33.3394 117.275 33.2611 117.332 33.1392C117.379 33.013 117.366 32.8693 117.284 32.7649Z" fill="#0039A6"/>
<path d="M37.4163 47.0772H9.66087C4.33434 47.0772 0 42.7429 0 37.4163V9.66087C0 4.33434 4.33434 0 9.66087 0H37.4163C42.7429 0 47.0728 4.33434 47.0728 9.66087V37.4163C47.0772 42.7429 42.7429 47.0772 37.4163 47.0772ZM9.66087 0.683223C4.70858 0.683223 0.683223 4.70858 0.683223 9.66087V37.4163C0.683223 42.3642 4.70858 46.3896 9.66087 46.3896H37.4163C42.3642 46.3896 46.3896 42.3599 46.3896 37.4163V9.66087C46.3896 4.70858 42.3642 0.683223 37.4163 0.683223H9.66087Z" fill="#0039A6"/>
<path d="M21.1088 6.8549C21.8268 6.43713 22.6102 6.22825 23.389 6.20215C21.7571 6.25002 20.1906 7.11601 19.3159 8.63477L5.2336 33.0175C3.88892 35.3502 4.68964 38.3268 7.01782 39.6714C9.346 41.0161 12.3269 40.2197 13.6673 37.8916L23.537 20.7978L19.3289 13.5087C17.9842 11.1762 18.7806 8.19959 21.1088 6.8549Z" fill="#00A1DE"/>
<path d="M41.8469 33.0161L27.7689 8.63769C26.8899 7.11894 25.3233 6.25295 23.6913 6.20508C24.466 6.22683 25.2494 6.44006 25.9674 6.85784C28.2956 8.20252 29.0962 11.1791 27.7471 13.5073L23.5391 20.7964L33.4088 37.8901C34.7534 40.2183 37.7301 41.0147 40.0582 39.67C42.3951 38.3253 43.1915 35.3487 41.8469 33.0161Z" fill="#0039A6"/>
<path d="M25.9659 6.8549C25.2479 6.43713 24.4645 6.22825 23.69 6.20215H23.6595H23.4202H23.3941C22.6151 6.2239 21.836 6.43713 21.1137 6.8549C18.7855 8.19959 17.9891 11.1762 19.3338 13.5044L23.542 20.7935L27.7501 13.5044C29.0905 11.1762 28.2941 8.19959 25.9659 6.8549Z" fill="#002C77"/>
<path d="M28.5502 35.4839C28.5502 38.256 26.3092 40.4928 23.5413 40.4928C20.7737 40.4928 18.5281 38.2515 18.5281 35.4839C18.5281 32.7205 20.7693 30.4751 23.537 30.4751C26.3047 30.4751 28.5502 32.7205 28.5502 35.4839Z" fill="#EEAF30"/>
</mask>
<g mask="url(#mask0_739_3531)">
<rect x="-2" y="-35" width="215" height="115" fill="#949494"/>
</g>
</svg>
