<svg width="214" height="52" viewBox="0 0 214 52" fill="none" xmlns="http://www.w3.org/2000/svg">
<mask id="mask0_740_3773" style="mask-type:alpha" maskUnits="userSpaceOnUse" x="0" y="0" width="214" height="52">
<path d="M109.819 37.4931C111.737 37.724 113.821 37.0847 115.235 35.9066C116.854 34.5275 118.308 31.6817 118.308 28.5922C118.308 25.1798 116.126 24.7736 115.316 24.7736C114.144 24.7736 113.255 25.3829 112.407 25.9516L109.819 37.4931ZM113.094 21.9299C114.144 21.1987 115.882 19.9778 118.51 19.9778C122.551 19.9778 125.26 23.0246 125.26 28.186C125.26 31.113 124.25 34.566 122.147 37.1274C118.147 42.0429 113.094 42.0023 108.808 42.0023L106.507 51.7156L106.227 51.9188C105.295 51.9188 104.406 51.876 103.477 51.876C102.103 51.876 100.891 51.9595 99.3956 52L99.1914 51.7156C99.1914 51.7156 100.616 47.4074 102.388 40.0032C104.249 32.2334 105.988 23.1315 106.141 21.2778L106.424 20.9934L113.336 19.8581L113.581 20.1403L113.094 21.9299ZM98.4683 41.5554L98.1451 41.8804C96.8499 42.1263 95.3314 42.3273 94.5062 42.3273C91.4545 42.3273 86.9757 41.8633 88.8727 34.1234C90.1508 28.8894 91.0717 24.9767 91.0717 24.9767L88.2412 25.0579L87.9986 24.7329L89.1725 20.6278L89.4555 20.4268H92.1223L93.294 15.1821L93.577 14.8999C96.6096 14.2093 97.4156 14.004 100.206 13.1915L100.448 13.4353L98.6703 20.5081L102.792 20.4268L102.955 20.709C102.387 22.4152 102.226 22.8643 101.7 24.7736L101.377 25.0579L97.6597 24.9767C97.6597 24.9767 96.9046 28.1304 95.8478 32.5199C94.7056 37.2686 95.3054 37.0248 96.4495 37.4781C97.4278 37.8672 98.7103 37.3712 99.4376 37.1274L99.68 37.3306L98.4678 41.5554H98.4683ZM75.8766 24.2455C73.9754 24.2455 71.8252 25.2183 70.5832 31.1365C69.2031 37.7218 71.955 38.143 73.2906 38.143C74.5028 38.143 77.0846 37.4781 78.3669 31.1729C79.2666 26.7641 78.5541 24.2455 75.8766 24.2455ZM85.3149 31.1729C83.5773 41.1385 77.4099 42.4085 72.189 42.4085C67.0359 42.4085 62.2849 38.8401 63.6291 31.1237C64.6795 25.0921 68.2418 19.5117 76.9017 19.9372C82.9415 20.2344 86.4951 24.3973 85.3149 31.1729Z" fill="#00674C"/>
<path d="M204.704 29.5585L210.967 41.5468L210.724 41.8717L206.239 41.9937L205.916 41.7478C204.867 38.8935 200.297 29.9242 200.297 29.9242C199.125 35.0855 198.883 36.3043 197.871 41.6666L197.59 41.9125L193.507 41.9937L193.345 41.7478C193.345 41.7478 195.502 32.7379 197.367 24.3972C198.241 20.4973 199.597 14.3225 200.136 10.5809L200.416 10.3371L204.823 9.60592L205.067 9.89028C204.253 12.6976 200.416 29.3555 200.416 29.3555C203.315 26.8026 208.138 21.7161 208.785 21.0255L209.229 20.7817H213.878L213.999 21.1473C212.851 22.0582 210.724 23.991 209.956 24.6816L204.703 29.5586L204.704 29.5585ZM189.258 41.6772L188.936 41.9209L184.813 42.0427L184.651 41.7605C185.245 39.0237 187.733 29.8577 187.765 27.0077C187.79 24.5702 186.27 23.7578 184.368 23.7578C181.863 23.7578 180.204 25.0171 178.992 25.913C177.497 32.7377 177.012 34.8908 175.719 41.6771L175.434 41.9208L171.315 42.0426L171.111 41.7604C171.111 41.7604 172.338 36.7851 173.446 31.613C174.314 27.5635 175.026 24.2281 175.353 21.4421L175.638 21.1578C177.537 20.914 177.982 20.8328 179.924 20.4265L180.126 20.7088L179.56 22.7806C181.136 21.7265 183.156 20.3025 186.51 20.3025C187.843 20.3025 192.21 20.6703 192.21 25.5857C192.21 28.5256 189.653 38.8077 189.258 41.677V41.6772ZM166.253 23.8391C165.645 23.8391 165.041 23.7986 164.433 23.7986C163.099 23.7986 160.473 23.8798 158.087 25.5069C153.844 28.4297 153.763 33.6723 153.763 33.8775C153.763 35.8275 154.814 38.9555 158.491 38.9555C159.584 38.9555 161.387 38.6989 163.342 36.9628L166.253 23.8392V23.8391ZM169.243 29.0005C167.829 35.2586 167.546 36.8023 166.738 41.6387L166.453 41.9209L162.655 42.0022L162.453 41.7178L162.736 40.095C162.049 40.6616 160.271 42.1647 156.834 42.1647C152.71 42.1647 149.357 39.2398 149.357 34.1597C149.357 30.9504 150.892 27.4546 152.591 25.4234C156.349 20.9933 161.564 20.7496 165.283 20.7496L170.86 20.7923L171.062 21.1152L169.243 29.0005ZM130.557 38.7523C132.843 38.8592 136.216 38.793 138.842 37.0055C141.833 34.9315 143.249 31.316 143.249 28.7139C143.249 25.0172 141.024 23.5954 138.438 23.5954C136.375 23.5954 134.921 24.4891 133.628 25.3015C133.628 25.3015 130.808 37.7559 130.557 38.7523ZM125.625 41.7178C125.895 40.4863 127.637 33.2659 129.419 25.1455C130.942 18.1817 132.003 13.8371 132.375 10.5915L132.699 10.305L137.105 9.53528L137.307 9.81963L136.176 14.331L134.315 22.1329C136.014 21.1986 137.628 20.3027 140.216 20.3027C144.217 20.3027 147.573 23.0245 147.573 28.1474C147.573 30.2192 146.926 34.119 144.217 37.2492C140.58 41.4356 136.095 41.7178 130.88 41.9209H128.658L125.827 41.9615L125.625 41.7177V41.7178Z" fill="#6EC72D"/>
<path d="M15.2422 26.0474C15.2422 20.4624 19.8817 15.9346 25.6058 15.9346C31.33 15.9346 35.9686 20.4624 35.9686 26.0474C35.9686 31.6314 31.33 36.1592 25.6058 36.1592C19.8817 36.1592 15.2422 31.6314 15.2422 26.0474Z" fill="#6EC72D"/>
<path d="M33.5416 11.2781C33.5416 7.66445 36.456 4.73447 40.0504 4.73447C43.6459 4.73447 46.5615 7.66445 46.5615 11.2781C46.5615 14.8928 43.6459 17.8228 40.0504 17.8228C36.456 17.8228 33.5416 14.8928 33.5416 11.2781ZM0 25.7417C0 11.5348 11.447 0.0173508 25.5727 0V9.30237C16.5556 9.31856 9.25183 16.6719 9.25183 25.7417C9.25183 34.8208 16.5729 42.1799 25.6026 42.1799C34.5794 42.1799 41.9546 34.8903 41.9546 25.6793L51.2063 25.6848C51.2063 39.9576 39.7443 51.4809 25.6026 51.4809C11.462 51.4809 0 39.9576 0 25.7415" fill="#00674C"/>
</mask>
<g mask="url(#mask0_740_3773)">
<rect x="-4" y="-33.177" width="218" height="115.617" fill="#949494"/>
</g>
</svg>
