<svg width="208" height="53" viewBox="0 0 208 53" fill="none" xmlns="http://www.w3.org/2000/svg">
<path d="M23.6933 40.3446C23.6933 40.3446 24.409 40.056 24.4738 39.8492L24.3789 39.6151C24.3117 39.4629 24.321 39.297 24.4507 39.2062L25.2243 38.6812L26.5169 38.9243C26.5169 38.9243 26.2829 38.638 26.3061 38.254L25.0739 37.9972L23.911 38.6925C23.4129 39.0584 23.3758 39.6559 23.5404 40.0104L23.6933 40.3446Z" fill="white"/>
<path d="M32.8286 43.6485C33.0602 43.6395 33.315 43.635 33.5954 43.635C33.5954 43.635 34.2602 41.7285 34.2971 41.6672C33.9243 41.5058 33.1506 41.1034 32.8517 40.9196C33.0487 41.2081 33.5282 41.5398 33.4332 41.7944L32.8286 43.6485Z" fill="white"/>
<path d="M39.1566 32.3418H20.7808V39.1223C20.7808 41.8945 22.8263 43.6307 25.8444 43.6307C28.367 43.6307 29.0316 43.726 29.9699 44.6395C30.6162 44.0078 31.1513 43.7714 32.2492 43.6828L32.2746 43.5784L32.8537 41.8219C32.8213 41.7832 31.874 40.7267 31.874 40.7267C31.4987 40.8494 31.1837 40.8699 30.6533 40.8699C30.1089 40.8699 29.4951 40.8084 28.8302 40.6857C28.763 40.6699 28.7005 40.6653 28.6379 40.6653C28.5568 40.6653 28.5499 40.6721 28.5291 40.7107L28.4132 40.897L28.2025 41.2379L27.8064 41.1493L26.0436 40.7425L25.8026 41.1334L25.8397 41.1742L26.0552 41.406L25.9603 41.7083C25.8304 42.1036 25.4089 42.5649 25.2815 42.6922L24.8413 43.1558L24.4407 42.6581L24.1396 42.2877C23.8221 41.9401 23.7482 41.406 23.9264 40.8471C23.9217 40.8515 23.9147 40.8538 23.908 40.8538L23.4099 41.0561L23.1851 40.5788L23.0277 40.2404C22.7568 39.645 22.8562 38.7747 23.586 38.2497L25.006 37.4635L26.3564 37.725C26.3888 37.5976 26.4373 37.1431 26.4767 37.0274C26.4513 37.0251 26.4259 37.0182 26.4002 37.0182L25.622 37.3023L24.8714 36.7933C24.8714 36.7933 24.5773 36.5159 24.8436 36.2388L25.571 35.1595L23.7295 32.8916L26.5601 34.0325L26.7478 33.8029L27.1299 33.3552L27.5631 33.7598C27.6859 33.8756 27.7554 34.0187 27.7901 34.1619C28.5707 34.4596 29.9675 35.339 30.0902 36.7682L29.6525 36.9409V36.9523C29.7521 37.0682 29.8355 37.116 29.8609 37.1204L31.8808 37.3159C31.9318 37.3068 31.9967 37.2841 32.0685 37.2636C32.3187 37.1796 32.6963 37.0591 33.1432 37.0591C33.507 37.0591 33.8589 37.1409 34.1971 37.2955C34.3223 37.25 34.4752 37.2159 34.6513 37.2046L34.7484 37.2023C35.8302 37.2023 36.3675 37.9952 36.7986 38.6271C36.8703 38.736 36.9421 38.8406 37.0163 38.9428C37.3937 39.4655 37.8871 40.2313 37.908 40.2631L38.1304 40.604L37.857 40.9153C37.6463 41.1538 37.3312 41.4334 36.7892 41.4334C36.678 41.4334 36.5553 41.422 36.4233 41.3969C36.3076 41.3765 36.2033 41.3423 36.1014 41.3015C36.0851 41.406 36.0643 41.531 36.0433 41.6377L35.689 43.4511C37.8084 42.9399 39.1543 41.3696 39.1543 39.1247L39.1566 32.3418Z" fill="#949494"/>
<path d="M20.7812 31.7964H35.0709C34.3574 31.0738 34.3668 30.1581 34.5498 29.5627C34.3413 29.465 34.1699 29.3467 34.017 29.2196C33.4588 29.624 31.7539 30.842 31.3092 31.1464L31.2143 31.2102L25.6062 30.2149H25.4928C25.3585 30.2149 25.1616 30.2102 24.9461 30.1853C24.8859 30.433 24.6682 30.6034 24.4179 30.6034C24.3901 30.6034 24.3577 30.6012 24.3276 30.5943C24.1816 30.5693 24.0544 30.4965 23.9687 30.3762C23.8806 30.258 23.8459 30.1171 23.8713 29.9718L23.8922 29.8535C23.3131 29.4537 22.7804 28.5605 23.0166 27.6198L23.0397 27.5199L23.1209 27.4631C23.1324 27.454 23.2296 27.3904 23.3733 27.3086L22.9656 27.2472C22.8128 27.22 22.7109 27.0813 22.7341 26.9337C22.7595 26.7837 22.9031 26.6768 23.0536 26.7064L24.0242 26.8564L24.1122 23.5024L25.5577 22.0027L26.4587 23.8638L25.5066 27.0904L26.3638 27.2222C26.5143 27.2449 26.6186 27.3835 26.5954 27.5357C26.5722 27.6698 26.4565 27.763 26.3198 27.763C26.3058 27.763 26.2896 27.763 26.2757 27.7608L25.5784 27.6495C25.5878 27.6698 25.6015 27.6811 25.6109 27.7038C25.685 27.8539 25.8495 27.963 25.9467 28.0084L30.2229 28.0743C30.4034 27.9016 30.8529 27.4699 31.3139 27.0131C30.2623 26.6223 29.88 25.7316 29.8151 25.1407C29.2268 24.8953 28.8214 24.5273 28.5968 24.0477C28.3234 23.4548 28.4207 22.8616 28.4925 22.5731C27.9226 22.3685 27.3228 21.996 26.7112 21.4006H20.2717C20.5474 22.1276 20.7812 22.9162 20.7812 23.7002V31.7964Z" fill="#949494"/>
<path d="M26.6669 35.284C26.5626 35.2749 26.4747 35.3543 26.4677 35.4543C26.4607 35.5588 26.5395 35.6474 26.6461 35.6496C26.7479 35.6588 26.8383 35.5815 26.8475 35.4793C26.8475 35.3793 26.7735 35.2863 26.6669 35.284Z" fill="#949494"/>
<path d="M39.1316 47.5794L38.073 47.1816L38.3648 46.1092L38.6868 44.9389C38.6868 44.9389 36.8105 45.9366 34.1676 46.6865C33.4171 46.8977 32.8495 46.9931 32.8495 46.9931V47.7883C32.8495 47.7883 31.4366 48.0293 30.0074 48.0293H29.991H29.9703H29.9425H29.9262C28.4971 48.0293 27.0841 47.7883 27.0841 47.7883V46.9931C27.0841 46.9931 26.5141 46.8977 25.766 46.6865C23.123 45.9366 21.2491 44.9389 21.2491 44.9389L21.5664 46.1092L21.8652 47.1816L20.8043 47.5794L19.6277 48.011C20.9781 48.6496 22.8473 49.5814 24.5593 50.0402L24.1562 51.1219C24.1562 51.1219 26.3266 52.0922 29.9425 52.1013V52.1036H29.9542H29.9703H29.9843H29.9934V52.1013C33.614 52.0922 35.782 51.1219 35.782 51.1219L35.3766 50.0402C37.0884 49.5814 38.9625 48.6496 40.3059 48.011L39.1316 47.5794ZM20.8831 48.0838L22.625 47.5158L22.1108 45.8683C22.8774 46.2955 24.5987 46.9363 25.5945 47.234L24.7538 49.4994C23.2156 49.0837 21.9347 48.5996 20.8831 48.0838ZM29.9703 51.5332C27.948 51.5332 25.6386 51.0764 24.96 50.8402L25.993 48.0975C26.8501 48.343 28.6337 48.6042 29.9285 48.595H29.9309H29.9703H30.005H30.0097C31.3046 48.6042 33.0834 48.343 33.9452 48.0975L34.9759 50.8402C34.2973 51.0787 31.9902 51.5332 29.9703 51.5332ZM35.1821 49.4994L34.3436 47.234C35.3419 46.9363 37.0582 46.2955 37.8274 45.8683L37.3155 47.5158L39.0551 48.0838C38.0011 48.5996 36.727 49.0837 35.1821 49.4994Z" fill="#949494"/>
<path d="M29.9681 4.76907C32.1224 4.76907 33.8456 5.46904 34.7977 6.21667C34.7977 6.21667 35.0803 4.54641 36.0462 3.07177L34.3112 3.26483L33.4033 1.37206L31.659 2.25374L29.9681 0.613068L28.2817 2.25374L26.5353 1.37206L25.6295 3.26483L23.8945 3.07177C24.8604 4.54641 25.1431 6.21667 25.1431 6.21667C26.0974 5.46904 27.8161 4.76907 29.9681 4.76907ZM25.5507 3.92834L26.0325 3.9784L26.241 3.54892L26.8478 2.27645L27.9736 2.8467L28.4092 3.06488L28.7566 2.72865L29.9704 1.54705L31.1865 2.72865L31.534 3.06488L31.9694 2.8467L33.0883 2.27645L33.7021 3.54892L33.9059 3.9784L34.3877 3.92834L34.8463 3.87379C34.6356 4.33974 34.4803 4.78043 34.369 5.1464C33.1553 4.4829 31.5756 4.10557 29.9658 4.10557C28.3629 4.10557 26.7853 4.4829 25.5669 5.1464C25.4536 4.78043 25.3006 4.33734 25.0897 3.87379L25.5507 3.92834Z" fill="#949494"/>
<path d="M55.2417 26.9312C58.0285 26.9312 58.9595 24.15 58.9989 24.0318L59.3093 23.0523L58.2645 23.0842H58.2601C57.8918 23.0842 54.8179 23.0046 52.6382 20.2869L52.432 20.0348C51.0075 18.2578 49.657 16.5695 47.2433 15.7991C47.3128 15.7378 47.4124 15.6605 47.5491 15.5742C48.8301 14.7471 49.5759 13.7426 49.7635 12.577C50.0368 10.8228 48.8973 9.42528 48.8463 9.36849L48.0703 8.42778L47.5862 9.54348C47.5538 9.61387 46.7383 11.4 45.0243 11.4H44.8968C44.7788 11.3931 44.6675 11.3886 44.5563 11.3794C44.6167 10.5819 44.4683 9.34802 43.3287 8.19138C41.9597 6.79847 40.278 6.5894 39.3979 6.5894C38.9276 6.5894 38.6149 6.6462 38.5824 6.65083L37.4104 6.87797L38.1331 7.81196C38.7007 8.53225 39.2148 9.86163 38.6055 10.5569C38.411 10.7773 38.0104 10.9568 37.6258 11.1363C36.8359 11.493 35.7588 11.9884 35.7588 13.2519C35.7588 14.07 36.4051 14.9243 37.5771 15.6514C41.0472 17.7919 43.1874 20.0256 44.1116 22.491C45.5408 26.2836 43.6761 28.4468 41.8647 29.5853L41.0516 30.0988L41.7628 30.7395C41.8578 30.8214 42.7288 31.5735 44.0143 31.6827C44.2575 31.6985 44.4914 31.7121 44.7093 31.7121C45.5339 31.7121 46.2358 31.5849 46.8055 31.4144C46.648 31.6848 46.4557 31.9598 46.2126 32.2371C45.1772 33.414 43.9032 33.9504 42.0709 33.9776L41.3898 33.989L41.3366 34.6593C41.3296 34.7933 41.2788 36.0364 42.4785 37.093C42.6616 37.2565 42.8839 37.3907 43.1156 37.5021C42.3026 38.2201 41.4755 39.4698 41.3159 41.6126C41.1815 43.4009 40.7459 44.0622 40.7414 44.0689L39.9886 45.1959L41.3483 45.2142C43.5952 45.2142 45.3161 44.6053 46.509 43.4009C47.2132 42.6874 47.6164 41.883 47.855 41.1696C48.2464 41.4967 48.7514 41.783 49.4091 41.9352C49.6593 41.992 49.9327 42.0238 50.2269 42.0238C50.8616 42.0238 51.3921 41.892 51.4523 41.8785L52.3208 41.6512L51.9363 40.8558C51.9085 40.7923 51.1836 39.1971 51.9641 36.9202C52.3 35.9363 52.4714 35.0546 52.5547 34.3685C53.1014 34.6479 53.8335 34.8797 54.7808 34.8819C56.9304 34.8819 57.8778 33.3073 57.9219 33.2414L58.3457 32.5187L57.5605 32.2007C54.9985 31.1577 54.4311 28.3558 54.3175 26.838C54.5492 26.8812 54.8133 26.9221 55.112 26.9312H55.2417ZM57.2732 32.8709C57.2732 32.8709 56.5227 34.1503 54.8016 34.1503H54.7808C52.7146 34.1389 51.8807 32.9028 51.8807 32.9028C51.8807 32.9028 52.0012 34.5117 51.2554 36.6816C50.3589 39.2971 51.2622 41.1673 51.2622 41.1673C51.2622 41.1673 50.7804 41.2945 50.2246 41.2945C50.0114 41.2945 49.7891 41.274 49.5806 41.2194C47.8549 40.8173 47.4241 39.2766 47.4241 39.2766C47.4241 39.2766 47.5838 44.4825 41.3968 44.4825H41.3483C41.3483 44.4825 41.8926 43.7553 42.0547 41.6625C42.3488 37.7996 45.0151 37.2702 45.0151 37.2702C45.0151 37.2702 43.5927 37.0953 42.9766 36.5522C42.0129 35.6955 42.0801 34.7047 42.0801 34.7047C44.2575 34.6752 45.6821 33.9481 46.7684 32.7143C47.9453 31.3781 48.1398 29.9397 48.1398 29.9397C48.1398 29.9397 46.9699 30.9805 44.707 30.9805C44.5078 30.9805 44.2946 30.9713 44.0768 30.9509C43.0067 30.8669 42.2655 30.1987 42.2655 30.1987C44.6211 28.7172 46.2751 26.1313 44.8089 22.2365C43.6344 19.1167 40.8131 16.7854 37.9733 15.0288C37.0282 14.4494 36.5023 13.8064 36.5023 13.2519C36.5023 11.9476 38.3926 11.9067 39.1686 11.0295C40.0625 10.0115 39.502 8.35964 38.7261 7.36663C38.7261 7.36663 38.9878 7.31433 39.4001 7.31433C40.2178 7.31433 41.6331 7.51651 42.7959 8.69812C44.341 10.266 43.6992 11.9726 43.6992 11.9726L44.1139 12.0521C44.3618 12.1044 44.6074 12.1135 44.8621 12.1248C44.9177 12.1248 44.9733 12.1271 45.0288 12.1271C47.2734 12.1271 48.2765 9.82517 48.2765 9.82517C48.2765 9.82517 50.6624 12.7043 47.1507 14.9583C46.5461 15.3446 46.2797 15.7013 46.3493 16.0831L46.4049 16.3331L46.655 16.3763C49.2007 17.0534 50.4886 18.7759 52.0614 20.7345C54.4496 23.7136 57.8292 23.8091 58.2461 23.8091H58.2902C58.2902 23.8091 57.5187 26.1972 55.2464 26.1972C55.2093 26.1972 55.1769 26.1972 55.1375 26.195C54.0929 26.1585 53.5578 25.7656 53.5578 25.7656C53.5578 25.7656 53.1478 31.1894 57.2732 32.8709Z" fill="#949494"/>
<path d="M50.3471 16.0992C51.3871 16.6422 51.9917 17.3694 52.5221 18.0146C53.0433 18.644 53.539 19.2508 54.3125 19.503C54.5882 19.5963 54.8801 19.6394 55.1766 19.6394C56.3394 19.6394 57.507 18.9417 57.9493 17.9761L58.3941 17.008L57.317 16.9444C57.266 16.9421 55.8809 16.8194 54.3382 15.272C53.7034 14.6381 52.9367 14.3039 52.1097 14.3039C51.0999 14.3039 50.3516 14.7993 50.2682 14.8494L49.2769 15.5334L50.3471 16.0992ZM52.1121 15.0358C52.6309 15.0358 53.2355 15.2083 53.8078 15.7878C55.6028 17.5762 57.273 17.6761 57.273 17.6761C56.9696 18.335 56.0893 18.9145 55.1789 18.9145C54.9682 18.9145 54.7573 18.8827 54.5466 18.8123C53.312 18.4033 52.8695 16.5854 50.6991 15.4537C50.6991 15.4537 51.3061 15.0358 52.1121 15.0358Z" fill="#949494"/>
<path d="M50.8331 25.7542V25.7907C50.2077 20.8416 46.5432 17.2672 42.4664 15.0926C42.0889 14.8948 41.7414 14.7268 41.4032 14.5654C42.6448 14.754 44.6438 14.7767 46.1865 13.4633C46.1865 13.4633 43.8261 15.1676 38.9895 13.6201C40.3285 14.4722 42.9297 15.6744 45.3039 17.6216C51.2409 22.7388 46.9926 27.7311 46.9926 27.7311C49.126 25.5476 49.214 23.2071 48.5863 21.2961C49.7097 23.1297 50.4278 25.3565 50.3165 28.1016C50.1522 32.0349 47.9493 35.4366 45.6305 38.1702C44.5164 39.4972 44.2663 41.1264 44.2663 41.1264C44.2663 41.1264 44.7156 39.6881 46.0058 38.2087C48.4913 35.3549 50.6153 32.3893 50.8933 28.1174C51.1505 28.8924 52.2091 31.0488 53.8884 31.8599C53.893 31.8622 51.7828 30.6148 50.8331 25.7542Z" fill="#949494"/>
<path d="M19.1942 44.0666C19.1919 44.0598 18.7611 43.3985 18.6222 41.6101C18.4601 39.4674 17.6353 38.2176 16.82 37.4995C17.0563 37.3905 17.274 37.2564 17.457 37.0906C18.6546 36.0339 18.6036 34.791 18.5966 34.657L18.5503 33.9866L17.8646 33.9752C16.0371 33.9456 14.7606 33.4094 13.7253 32.2346C13.4844 31.9574 13.2899 31.6824 13.1323 31.4121C13.7021 31.5824 14.3993 31.7098 15.2263 31.7098C15.4487 31.7098 15.6781 31.696 15.9212 31.6802C17.2068 31.5711 18.0778 30.8212 18.175 30.7372L18.8861 30.0965L18.0731 29.5828C16.2548 28.4422 14.397 26.2789 15.8239 22.4887C16.7481 20.0232 18.8861 17.7895 22.3607 15.649C23.5329 14.9218 24.1744 14.0676 24.1744 13.2495C24.1744 11.9861 23.0996 11.4885 22.3098 11.1339C21.9252 10.9544 21.5246 10.7749 21.3301 10.5545C20.7184 9.86144 21.2349 8.52995 21.8002 7.80951L22.5275 6.87567L21.3508 6.64838C21.3161 6.6439 21.008 6.58711 20.5355 6.58711C19.6552 6.58711 17.9782 6.79617 16.6068 8.18908C15.4649 9.34797 15.3144 10.5818 15.3723 11.377C15.2611 11.3862 15.1499 11.3908 15.0341 11.3975H14.909C13.1903 11.3975 12.3773 9.61157 12.3449 9.54105L11.8606 8.42534L11.0777 9.36605C11.0337 9.42299 9.88947 10.8226 10.1674 12.5746C10.3527 13.7402 11.0985 14.7446 12.3794 15.5718C12.5184 15.6581 12.6158 15.7353 12.6853 15.7968C10.274 16.567 8.9258 18.2577 7.50118 20.0345L7.29501 20.2868C5.11773 23.0045 2.03688 23.0841 1.66859 23.0841L0.619385 23.0523L0.938943 24.0315C0.976026 24.1497 1.90489 26.931 4.69372 26.931L4.82815 26.9266C5.12227 26.9175 5.38643 26.8788 5.62273 26.8334C5.50677 28.3489 4.93926 31.1508 2.37506 32.196L1.59213 32.5142L2.01615 33.2367C2.05778 33.3026 3.00752 34.8774 5.16163 34.8774C6.10214 34.875 6.83405 34.6432 7.38311 34.3638C7.46652 35.05 7.63788 35.9317 7.97378 36.9156C8.75444 39.1924 8.02707 40.7876 7.99921 40.8513L7.61471 41.6466L8.48574 41.8738C8.54357 41.8874 9.0787 42.0191 9.711 42.0191C10.0075 42.0191 10.2809 41.9874 10.5265 41.9305C11.1867 41.7783 11.6962 41.4921 12.0829 41.1648C12.3192 41.8782 12.7246 42.6827 13.4266 43.3962C14.6217 44.6005 16.3404 45.2095 18.5873 45.2095L19.9494 45.1914L19.1942 44.0666ZM18.5364 44.4824C12.3493 44.4824 12.507 39.2765 12.507 39.2765C12.507 39.2765 12.0762 40.8171 10.3504 41.2194C10.1442 41.2739 9.92414 41.2944 9.70872 41.2944C9.15286 41.2944 8.6733 41.1671 8.6733 41.1671C8.6733 41.1671 9.57203 39.297 8.67557 36.6816C7.93442 34.5114 8.05492 32.9028 8.05492 32.9028C8.05492 32.9028 7.22326 34.1389 5.15483 34.1502H5.13393C3.41291 34.1502 2.66237 32.8709 2.66237 32.8709C6.78546 31.1917 6.38007 25.7699 6.38007 25.7699C6.38007 25.7699 5.84511 26.1608 4.79802 26.1994C4.76094 26.2017 4.72627 26.2017 4.68918 26.2017C2.41442 26.2017 1.64543 23.8135 1.64543 23.8135H1.69174C2.11106 23.8135 5.48604 23.718 7.87417 20.739C9.44699 18.7803 10.7372 17.0601 13.2782 16.3808L13.533 16.3376L13.5887 16.0876C13.6582 15.7058 13.3941 15.3491 12.7896 14.9628C9.2779 12.7064 11.6638 9.82961 11.6638 9.82961C11.6638 9.82961 12.6621 12.1293 14.9113 12.1293C14.9668 12.1293 15.0179 12.1269 15.0757 12.1269C15.3282 12.1133 15.5785 12.1042 15.8239 12.052L16.2386 11.9724C16.2386 11.9724 15.5969 10.266 17.1442 8.69807C18.3071 7.51422 19.7224 7.31427 20.5377 7.31427C20.9524 7.31427 21.2095 7.36643 21.2095 7.36643C20.4359 8.36169 19.8753 10.0115 20.7693 11.0295C21.543 11.9043 23.4309 11.9474 23.4309 13.2517C23.4309 13.8039 22.9051 14.4493 21.9601 15.0287C19.1177 16.7852 16.2966 19.1166 15.1244 22.2365C13.6605 26.1313 15.312 28.7148 17.6724 30.1987C17.6724 30.1987 16.9312 30.8666 15.8587 30.9508C15.641 30.9713 15.4302 30.9803 15.2263 30.9803C12.9655 30.9803 11.7958 29.9395 11.7958 29.9395C11.7958 29.9395 11.9903 31.3781 13.1602 32.7141C14.2534 33.9479 15.6781 34.6751 17.8555 34.7047C17.8555 34.7047 17.925 35.6955 16.9613 36.5519C16.3429 37.0928 14.9205 37.27 14.9205 37.27C14.9205 37.27 17.589 37.7995 17.8809 41.6624C18.0407 43.7552 18.5804 44.4824 18.5804 44.4824H18.5364Z" fill="#949494"/>
<path d="M4.75679 19.6421C5.05561 19.6421 5.34746 19.5988 5.62298 19.5056C6.40136 19.2534 6.8947 18.6467 7.41589 18.0173C7.94875 17.3719 8.54866 16.6448 9.58862 16.1018L10.6589 15.5382L9.66507 14.8542C9.58166 14.802 8.83582 14.309 7.82825 14.309C6.99901 14.309 6.23 14.6407 5.59755 15.2768C4.05485 16.8221 2.67201 16.947 2.62099 16.9493L1.54395 17.0106L1.98642 17.9809C2.43102 18.942 3.59617 19.6421 4.75679 19.6421ZM6.12798 15.7905C6.70245 15.2109 7.30706 15.0383 7.82825 15.0383C8.62964 15.0383 9.23652 15.4563 9.23652 15.4563C7.06848 16.5902 6.62374 18.406 5.38441 18.8149C5.18065 18.8853 4.96751 18.9172 4.75679 18.9172C3.8464 18.9172 2.96614 18.34 2.66505 17.6788C2.66505 17.6765 4.33278 17.5764 6.12798 15.7905Z" fill="#949494"/>
<path d="M9.61862 28.1038C9.50283 25.3588 10.221 23.1319 11.3466 21.2982C10.7189 23.2092 10.8046 25.5497 12.9403 27.7335C12.9403 27.7335 8.69204 22.7412 14.6312 17.6239C17.0079 15.6765 19.6069 14.4744 20.9434 13.6223C16.1091 15.1697 13.7487 13.4656 13.7487 13.4656C15.2913 14.779 17.2905 14.7563 18.5321 14.5655C18.1962 14.7267 17.844 14.8949 17.471 15.0925C13.3897 17.2671 9.72747 20.8415 9.0997 25.7906V25.752C8.15239 30.6125 6.04443 31.86 6.04443 31.86C7.72155 31.0487 8.77788 28.8946 9.03491 28.1175C9.31527 32.3895 11.4392 35.3548 13.9247 38.2089C15.215 39.688 15.669 41.1265 15.669 41.1265C15.669 41.1265 15.4166 39.4971 14.2978 38.1701C11.9837 35.4411 9.78076 32.0372 9.61862 28.1038Z" fill="#949494"/>
<path d="M28.571 18.0898V19.0714C28.9162 18.6601 29.5834 18.7443 29.5834 18.7443V20.16C29.5834 20.16 29.5601 20.8553 29.3077 21.1574H30.0304H30.7507C30.503 20.8576 30.4773 20.16 30.4773 20.16V18.7443C30.4773 18.7443 31.1445 18.6601 31.4874 19.0714V18.0898H30.0304H28.571Z" fill="#949494"/>
<path d="M27.9501 12.268C28.411 12.6272 28.6774 12.6862 28.6867 12.6931L28.8674 12.7748V11.8499L27.1719 11.1501C27.1719 11.1523 27.188 11.6862 27.9501 12.268Z" fill="#949494"/>
<path d="M31.983 12.268C32.7498 11.6862 32.7636 11.1501 32.7636 11.1501L31.0681 11.8499V12.7748L31.2464 12.6931C31.2581 12.6862 31.5221 12.6272 31.983 12.268Z" fill="#949494"/>
<path d="M35.0377 8.50288C35.0377 7.10086 32.631 5.83975 29.9741 5.83975H29.9718H29.9649H29.958C27.3011 5.83975 24.8943 7.10086 24.8943 8.50288L24.9477 8.84823L26.0085 14.8221L24.9431 15.4289L22.1865 17.0081H22.1959C22.1959 17.0081 21.5751 17.3194 21.2877 17.5126C20.2385 18.2285 20.0162 19.2713 20.6253 19.7031C20.776 18.8533 21.4615 17.9625 22.7448 17.9625C23.669 17.9625 24.3732 18.4305 24.9431 19.1328C25.089 19.31 25.228 19.4986 25.3577 19.7031C25.5174 19.9598 25.6772 20.1849 25.8372 20.403H18.7375C19.2587 21.4323 19.7543 22.5231 19.7543 23.7069V39.1223C19.7543 42.8534 22.68 44.6349 25.844 44.6349C28.2902 44.6349 28.6192 44.5258 29.9696 45.8437C31.3131 44.5236 31.642 44.6349 34.0904 44.6349C37.2568 44.6349 40.1778 42.8534 40.1778 39.1223V23.7069C40.1778 22.5231 40.6736 21.4323 41.197 20.403H34.095C34.2525 20.187 34.4124 19.9598 34.5721 19.7031C34.7042 19.4986 34.8408 19.31 34.9845 19.1328C35.5589 18.4284 36.2607 17.9625 37.185 17.9625C38.4682 17.9625 39.1516 18.851 39.3045 19.7031C39.9138 19.2713 39.6937 18.2285 38.6374 17.5126C38.3548 17.3194 37.7339 17.0081 37.7339 17.0081H37.7433L34.9868 15.4289L33.9259 14.8221L34.9868 8.84823L35.0377 8.50288ZM25.939 9.19821L29.6684 10.4389V16.1855L26.9236 14.7654L25.939 9.19821ZM26.7104 21.405C27.322 22.0025 27.922 22.373 28.4917 22.5775C28.4175 22.8662 28.3204 23.4616 28.596 24.0545C28.8206 24.5317 29.2283 24.8999 29.8143 25.1453C29.8792 25.7362 30.2591 26.6245 31.3131 27.0178C30.8521 27.4744 30.4026 27.9039 30.2197 28.0788L25.9459 28.0129C25.8487 27.9651 25.6842 27.8584 25.6103 27.7062C25.6009 27.6857 25.587 27.6743 25.5801 27.6516L26.2772 27.7629C26.2935 27.7652 26.3073 27.7652 26.3212 27.7652C26.4557 27.7652 26.5737 27.6743 26.5969 27.538C26.6201 27.3858 26.5159 27.2471 26.3653 27.2244L25.5082 27.0926L26.4602 23.8681L25.5592 22.0072L24.1138 23.507L24.0257 26.8608L23.0553 26.7109C22.9046 26.6813 22.761 26.7905 22.7356 26.9381C22.7124 27.0859 22.8143 27.2244 22.9671 27.2517L23.3748 27.313C23.2289 27.3949 23.134 27.4584 23.1224 27.4675L23.0389 27.5243L23.0158 27.6245C22.7796 28.5652 23.3146 29.4582 23.8915 29.858L23.8706 29.9762C23.8474 30.1217 23.8798 30.2624 23.9679 30.3807C24.0512 30.5012 24.1809 30.5738 24.3245 30.5988C24.3547 30.6033 24.387 30.6056 24.415 30.6056C24.665 30.6056 24.8829 30.4351 24.9454 30.1876C25.1608 30.2125 25.3577 30.217 25.492 30.217H25.6056L31.2135 31.21L31.3084 31.1488C31.7554 30.8419 33.458 29.6241 34.0162 29.2217C34.1691 29.3514 34.3405 29.4696 34.549 29.5671C34.3683 30.1624 34.3567 31.0783 35.0725 31.8009H20.7805V23.7092C20.7805 22.9253 20.5466 22.1368 20.2709 21.4096H26.7104V21.405ZM33.6409 28.8083C33.0735 29.2173 31.6142 30.2624 31.086 30.626L25.99 29.7285C26.0017 29.6831 26.0132 29.6399 26.0248 29.5945C26.0919 29.3353 26.1591 28.9809 26.1638 28.5652L30.4467 28.6333L30.5278 28.5514C30.5927 28.4879 31.9501 27.2016 32.6427 26.4609C32.8071 26.6631 33.0132 26.8564 33.2819 27.0267C33.1893 27.5175 33.2286 28.2174 33.6409 28.8083ZM25.1098 27.9424C25.2303 28.1902 25.4479 28.3561 25.5986 28.4492C25.5939 28.6809 25.5708 29.0422 25.5082 29.3604C25.4943 29.4308 25.4758 29.4967 25.4549 29.5626C25.4434 29.6036 25.4318 29.6376 25.4225 29.6649C25.1979 29.6649 24.7553 29.6376 24.394 29.5081C23.9934 29.3627 23.3958 28.6424 23.5346 27.8494C23.7084 27.7447 24.1092 27.5243 24.4845 27.5243C24.774 27.5221 24.9708 27.6561 25.1098 27.9424ZM24.5794 26.945L24.665 23.725L25.4017 22.9593L25.865 23.9091L24.9523 26.9994L24.5794 26.945ZM33.5947 43.6373C33.3167 43.6373 33.0595 43.6419 32.8279 43.651L33.4348 41.799C33.5299 41.5422 33.0503 41.2128 32.8533 40.9242C33.1522 41.1083 33.9259 41.5105 34.2989 41.6719C34.2595 41.7309 33.5947 43.6373 33.5947 43.6373ZM35.4987 41.5332L35.1026 43.5602C34.8502 43.5942 34.5815 43.6123 34.3058 43.6237L34.7228 41.6741C34.8478 41.0945 33.2612 40.9151 32.4783 39.7767C32.096 40.1993 31.3756 40.3244 30.6529 40.3244C29.9928 40.3244 29.3326 40.2197 28.9318 40.1425C28.8299 40.1267 28.7326 40.1153 28.6376 40.1153C28.406 40.1153 28.1951 40.1857 28.0493 40.4266L27.9334 40.6175L25.7724 40.1176L25.235 40.9901C25.1585 41.131 25.1538 41.2515 25.2766 41.3831L25.4225 41.5401C25.3229 41.8491 24.8736 42.3149 24.8736 42.3149L24.5517 41.9216C24.2967 41.6423 24.3385 41.1333 24.6049 40.6606L25.4619 39.2404L27.2919 39.4994L27.0069 38.8632C26.6248 38.0224 27.2062 36.9522 27.2687 36.3363C27.2478 36.5227 27.074 36.5636 26.8702 36.5636C26.685 36.5636 26.4788 36.5295 26.3421 36.5295C26.2888 36.5295 26.2425 36.534 26.2171 36.5522L25.7213 36.8477L25.3299 36.509C25.2835 36.4432 25.2674 36.2909 25.3831 36.1773L26.2888 35.182L25.2188 33.9573L26.7174 34.6958L27.1736 34.1527C27.2989 34.2732 27.2455 34.589 27.2455 34.589C27.7135 34.6003 29.0244 35.3117 29.094 36.9704C29.0986 37.0203 29.0986 37.0772 29.0986 37.1316C29.0986 37.1316 29.1103 37.1522 29.1334 37.1862C29.226 37.3113 29.4808 37.6316 29.805 37.6611L31.8759 37.8611H31.8851C32.1122 37.8611 32.5639 37.5998 33.1429 37.5998C33.458 37.5998 33.81 37.6793 34.1853 37.9111C34.1853 37.9111 34.3729 37.7656 34.6787 37.7497C34.7018 37.7474 34.7275 37.7475 34.7506 37.7475C35.6795 37.7475 36.0639 38.5702 36.562 39.2541C36.9373 39.7744 37.4376 40.5471 37.4376 40.5471C37.2522 40.7628 37.0807 40.881 36.7936 40.881C36.7149 40.881 36.6245 40.8741 36.5272 40.8561C35.5311 40.6765 35.3876 38.6678 34.8201 38.5087C34.79 38.4996 34.7576 38.4974 34.7297 38.4974C34.5467 38.4974 34.4657 38.6565 34.4657 38.6565C34.7249 39.3403 34.5745 39.6177 34.8525 40.1448C35.0609 40.5356 35.4315 40.8583 35.5844 41.0106C35.5844 41.0151 35.5428 41.3105 35.4987 41.5332ZM24.3779 39.6153L24.4728 39.8495C24.4103 40.0539 23.6923 40.3447 23.6923 40.3447L23.5369 40.0129C23.3725 39.6585 23.4072 39.0609 23.9076 38.695L25.0704 37.9997L26.3028 38.2564C26.2796 38.6405 26.5135 38.9269 26.5135 38.9269L25.221 38.6837L24.4474 39.2086C24.3176 39.2972 24.3084 39.4632 24.3779 39.6153ZM35.6933 43.4488L36.0478 41.6354C36.0662 41.5287 36.0893 41.4037 36.1056 41.2991C36.2052 41.3401 36.3118 41.3742 36.4275 41.3946C36.5596 41.4196 36.6823 41.4309 36.7936 41.4309C37.3357 41.4309 37.6507 41.1514 37.8614 40.9128L38.1348 40.6015L37.9124 40.2608C37.8916 40.2266 37.4005 39.4632 37.0206 38.9404C36.9464 38.8382 36.8745 38.736 36.8028 38.6246C36.372 37.9928 35.8323 37.2 34.7506 37.2L34.6533 37.2022C34.4749 37.2135 34.322 37.2475 34.1993 37.293C33.8587 37.1362 33.5089 37.0568 33.1452 37.0568C32.6982 37.0568 32.3206 37.1772 32.0705 37.2612C31.9987 37.2817 31.9339 37.3044 31.8829 37.3136L29.8606 37.118C29.8352 37.1136 29.7518 37.0659 29.6522 36.9477V36.9385L30.09 36.7658C29.9672 35.3367 28.5681 34.4572 27.7875 34.1595C27.7529 34.0163 27.6834 33.8731 27.5606 33.7574L27.1251 33.3529L26.7428 33.8028L26.5553 34.0324L23.7247 32.8915L25.5662 35.1593L24.8388 36.2387C24.5724 36.5159 24.8666 36.7932 24.8666 36.7932L25.617 37.2999L26.3954 37.0158C26.4231 37.0158 26.4464 37.0227 26.4718 37.0249C26.4348 37.1407 26.3862 37.5952 26.3537 37.7225L25.0032 37.4612L23.5833 38.2475C22.8536 38.7724 22.754 39.6426 23.0251 40.238L23.1826 40.5764L23.4072 41.0537L23.903 40.8514C23.9099 40.8492 23.9169 40.8469 23.9214 40.8425C23.7431 41.4014 23.815 41.9331 24.1346 42.2831L24.4357 42.6557L24.8365 43.1534L25.2766 42.6898C25.4063 42.5625 25.8256 42.1014 25.9553 41.7059L26.0502 41.4035L25.8349 41.1718L25.8001 41.131L26.0411 40.7401L27.8037 41.1469L28.1998 41.2355L28.4106 40.8946L28.5265 40.7082C28.5473 40.6697 28.5542 40.6628 28.6354 40.6628C28.6979 40.6628 28.7604 40.6697 28.8276 40.6834C29.4923 40.806 30.1061 40.8675 30.6505 40.8675C31.1787 40.8675 31.4936 40.8469 31.8712 40.7243C31.8712 40.7243 32.8187 41.7786 32.8511 41.8195L32.2721 43.5737L32.2465 43.6805C31.1486 43.7668 30.6135 44.0032 29.9672 44.6372C29.0291 43.7236 28.3642 43.6283 25.8419 43.6283C22.8235 43.6283 20.7782 41.8923 20.7782 39.12V32.3417H39.1516L39.1563 39.12C39.1585 41.3695 37.8128 42.9374 35.6933 43.4488ZM39.6658 21.405C39.3857 22.1322 39.1516 22.9208 39.1516 23.7047L39.1541 28.7628C38.0768 28.5856 37.9495 27.447 37.9448 27.3972L37.924 27.1654L37.6923 27.1449C37.2244 27.1017 36.914 26.9062 36.6523 26.6564C36.1241 26.1383 36.1217 25.2975 36.1241 25.2906C36.1173 25.3338 35.5428 26.1223 36.2099 26.9835C36.4901 27.3471 36.8955 27.5699 37.4213 27.6585C37.5441 28.2902 38.0236 29.1808 39.1541 29.3172V31.794H35.9759C34.5096 30.9943 35.1304 29.5853 35.1605 29.5263L35.2856 29.2581L35.0053 29.1536C33.4186 28.5765 33.8541 27.0222 33.8772 26.9563L33.942 26.729L33.7267 26.6291C32.4155 26.0337 32.594 24.4272 32.6103 24.3614C32.2072 24.6817 32.0612 25.3361 32.3392 25.9769C32.1886 26.1451 31.9872 26.3496 31.767 26.5722C30.4096 26.2338 30.3681 25.009 30.3681 24.9522L30.3656 24.7635L30.1873 24.6953C29.6569 24.5022 29.2931 24.2136 29.1147 23.8249C28.9133 23.3957 28.985 22.9457 29.0408 22.7297C29.1959 22.7639 29.351 22.789 29.4993 22.8003C29.6522 22.8161 29.8097 22.8252 29.9672 22.8252H29.9765H29.9881C30.1456 22.8252 30.3009 22.8161 30.4537 22.8003C31.2991 22.7184 32.2465 22.3617 33.2333 21.4027H39.6658V21.405ZM34.7135 16.2922L35.9689 17.0081H35.9874L36.3025 17.1876C35.5937 17.3808 35.0517 17.7284 34.5977 18.1852C34.5815 18.1988 34.5653 18.217 34.549 18.2329C34.4448 18.3419 34.3405 18.4602 34.2433 18.5806C34.2247 18.6034 34.2062 18.6283 34.1853 18.6533C34.088 18.7759 33.9978 18.9011 33.9096 19.0327C33.8958 19.0556 33.8795 19.0783 33.8634 19.0986C33.7591 19.2509 33.6596 19.4145 33.56 19.5826C32.6658 21.0937 31.2389 21.9959 29.9696 21.9981C28.7026 21.9959 27.2757 21.0937 26.3815 19.5826C26.2842 19.4189 26.1869 19.26 26.0826 19.1054C26.0618 19.0759 26.0433 19.0464 26.0248 19.0213C25.9368 18.8964 25.8487 18.7737 25.7584 18.6579C25.7353 18.6261 25.7143 18.601 25.6912 18.5737C25.5939 18.4578 25.4943 18.3419 25.3947 18.2351C25.3739 18.2193 25.36 18.1988 25.3391 18.1806C24.8829 17.7239 24.3431 17.3785 23.632 17.1876L23.9516 17.0081H23.9655L25.221 16.2922L26.5112 15.5675L29.958 17.408L29.9649 17.4012L29.9741 17.408L33.4209 15.5675L34.7135 16.2922ZM33.0132 14.7676L30.2661 16.1878V10.4389L33.9931 9.19821L33.0132 14.7676ZM29.9672 9.80717L25.8811 8.22343C26.2286 7.41676 27.8315 6.7304 29.9672 6.72815C32.1053 6.7304 33.7081 7.41676 34.0533 8.22343L29.9672 9.80717Z" fill="#949494"/>
<path d="M80.5666 33.856V24.7574H86.0071V21.4464H71.165V24.7574H76.6052V33.856H80.5666ZM91.4217 28.668V21.4464H87.5924V33.856H90.9728L97.5751 26.6345V33.856H101.404V21.4464H98.024L91.4217 28.668ZM114.287 29.2416V33.856H118.117V21.4464H114.287V25.9826H108.134V21.4464H104.305V33.856H108.134V29.2416H114.287ZM128.781 33.856C129.652 33.856 130.444 33.7779 131.184 33.5693C133.166 33.0219 134.458 31.4314 134.458 29.2676C134.458 27.2081 133.35 25.7742 131.581 25.1223C130.734 24.8096 129.732 24.7835 128.781 24.7835H124.846V21.4464H121.017V33.856H128.781ZM128.12 27.7034C128.649 27.7034 129.151 27.7034 129.599 27.8599C130.234 28.0684 130.604 28.5898 130.604 29.2155C130.604 29.8673 130.234 30.4148 129.626 30.6754C129.203 30.8579 128.781 30.8579 128.12 30.8579H124.846V27.7034H128.12ZM141.325 29.1634L145.894 33.856H150.99L144.626 27.3905L150.753 21.4464H145.947L141.325 26.1131H140.269V21.4464H136.44V33.856H140.269V29.1634H141.325ZM158.869 21.1076C153.719 21.1076 150.63 23.9752 150.63 27.6772C150.63 31.3794 153.719 34.2472 158.869 34.2472C163.994 34.2472 167.084 31.3794 167.084 27.6772C167.084 23.9752 163.994 21.1076 158.869 21.1076ZM158.869 31.223C156.308 31.223 154.672 29.7109 154.672 27.6772C154.672 25.6439 156.308 24.1578 158.869 24.1578C161.405 24.1578 163.069 25.6439 163.069 27.6772C163.069 29.7109 161.405 31.223 158.869 31.223ZM179.837 20.7425H176.007V21.9938C171.201 22.0981 168.322 24.1055 168.322 27.6512C168.322 31.1968 171.201 33.0479 176.007 33.1522V34.4036H179.837V33.1522C184.669 33.0479 187.548 31.1968 187.548 27.6512C187.548 24.1055 184.669 22.0981 179.837 21.9938V20.7425ZM176.007 30.493C173.366 30.3887 172.204 29.3198 172.204 27.6512C172.204 25.9826 173.366 24.7835 176.007 24.6793V30.493ZM179.837 24.6793C182.505 24.7835 183.64 25.9826 183.64 27.6512C183.64 29.3198 182.505 30.3887 179.837 30.493V24.6793ZM200.288 20.7425H196.458V21.9938C191.652 22.0981 188.774 24.1055 188.774 27.6512C188.774 31.1968 191.652 33.0479 196.458 33.1522V34.4036H200.288V33.1522C205.122 33.0479 208 31.1968 208 27.6512C208 24.1055 205.122 22.0981 200.288 21.9938V20.7425ZM196.458 30.493C193.818 30.3887 192.656 29.3198 192.656 27.6512C192.656 25.9826 193.818 24.7835 196.458 24.6793V30.493ZM200.288 24.6793C202.955 24.7835 204.091 25.9826 204.091 27.6512C204.091 29.3198 202.955 30.3887 200.288 30.493V24.6793Z" fill="#949494"/>
</svg>
