<svg width="158" height="58" viewBox="0 0 158 58" fill="none" xmlns="http://www.w3.org/2000/svg">
<g clip-path="url(#clip0_739_3593)">
<path d="M45.5127 7.41746H8.14161L10.8338 0H48.2049L45.5127 7.41746ZM44.1666 11.1262H6.77868L4.08648 18.5436H41.4576L44.1666 11.1262ZM40.1283 22.2187H2.74038L0.0481873 29.6361H37.3856L40.1283 22.2187Z" fill="#949494"/>
<path d="M134.555 48.1965H141.286C142.242 48.3109 143.212 48.1878 144.11 47.838C145.008 47.4881 145.807 46.9223 146.435 46.1904C147.358 44.9799 147.823 43.4807 147.747 41.9591C147.81 40.9909 147.633 40.0221 147.23 39.1395C146.828 38.2569 146.214 37.488 145.442 36.9018C144.193 36.0828 142.707 35.7032 141.219 35.8229H134.555V48.1965ZM125.722 55.6645V11.1261H154.646L152.105 18.5941H134.555V28.456H141.706C147.478 28.456 150.473 29.8383 152.543 31.6084C154.022 32.9212 155.186 34.5525 155.947 36.3802C156.707 38.2079 157.045 40.1844 156.934 42.1614C157.048 44.2904 156.629 46.4141 155.715 48.3395C154.801 50.2649 153.421 51.931 151.701 53.1864C148.925 55.1082 146.014 55.6477 140.091 55.6477L125.722 55.6645ZM100.112 55.6645V18.5773H87.2568V11.1261H122.945L120.404 18.5941H109.03V55.6814L100.112 55.6645ZM64.4909 28.9617H69.5388C70.5712 29.0324 71.6084 28.9529 72.618 28.7257C73.668 28.3897 74.5729 27.7062 75.1843 26.7873C75.7958 25.8684 76.0775 24.7687 75.9832 23.6684C76.1233 22.575 75.858 21.4682 75.2378 20.5578C74.6175 19.6474 73.6853 18.9966 72.618 18.729C71.5156 18.4726 70.3831 18.3705 69.2528 18.4256H64.4909V28.9617ZM64.4909 36.6658V48.3482H70.6493C72.3465 48.5426 74.053 48.0714 75.4112 47.0333C76.0371 46.4523 76.5274 45.7401 76.8474 44.9476C77.1673 44.1551 77.3089 43.3016 77.262 42.448C77.2888 41.0841 76.8758 39.748 76.0842 38.6381C74.7718 36.9523 73.1564 36.632 70.3969 36.632L64.4909 36.6658ZM78.7259 31.9624V32.1141C80.2261 32.6927 81.628 33.5002 82.882 34.5079C84.1495 35.5618 85.1513 36.9002 85.8062 38.4144C86.461 39.9287 86.7505 41.5762 86.6511 43.2234C86.6511 49.3091 83.4204 53.709 78.1202 55.0239C76.0074 55.5414 73.8314 55.7514 71.6589 55.6477H55.6572V11.1261H69.8921C72.1531 11.0433 74.4152 11.253 76.6226 11.7499C81.7715 13.1322 85.1535 16.6892 85.1535 22.3029C85.1956 23.6413 84.9651 24.9742 84.4763 26.2205C83.9874 27.4667 83.2503 28.6002 82.3099 29.5517C81.3112 30.5676 80.1218 31.3755 78.8101 31.9287L78.7259 31.9624Z" fill="#949494"/>
</g>
<defs>
<clipPath id="clip0_739_3593">
<rect width="158" height="58" fill="white"/>
</clipPath>
</defs>
</svg>
