<svg width="110" height="66" viewBox="0 0 110 66" fill="none" xmlns="http://www.w3.org/2000/svg">
<mask id="mask0_739_3501" style="mask-type:alpha" maskUnits="userSpaceOnUse" x="0" y="0" width="110" height="66">
<path fill-rule="evenodd" clip-rule="evenodd" d="M16.5493 1.62472C16.6204 1.08653 16.5747 0.53819 16.656 0C16.7067 0.870751 16.689 1.74658 16.7626 2.61733C16.7753 3.0489 16.7829 3.48046 16.8007 3.90949C16.8844 4.56446 16.8743 5.22451 16.8768 5.88201C16.9174 6.7883 16.9657 7.6946 16.986 8.60089C17.0723 9.29647 17.0571 9.99713 17.0647 10.6978C17.1104 11.6041 17.151 12.5078 17.1764 13.4141C17.2729 14.1097 17.2322 14.8155 17.2551 15.5161C17.2957 16.3361 17.3363 17.1586 17.3541 17.9786C17.4328 18.6539 17.4353 19.3342 17.4328 20.012C17.4531 20.4157 17.4683 20.8193 17.481 21.2255C17.4125 21.1849 17.3414 21.1468 17.2729 21.1087C17.0621 20.9437 16.8311 20.8041 16.6534 20.601C16.6255 20.5883 16.5671 20.568 16.5392 20.5553C16.4884 20.4791 16.4224 20.4131 16.3488 20.3598C16.2295 20.2304 16.1025 20.111 15.9756 19.9917C15.9198 19.9156 15.8512 19.8521 15.77 19.8064C15.6887 19.5322 15.7751 19.2454 15.7674 18.9661C15.7624 18.4076 15.7725 17.8517 15.8436 17.2982C15.8639 16.5163 15.9198 15.737 15.9528 14.9551C15.9452 14.3991 15.9629 13.8432 16.0315 13.2897C16.0492 12.5485 16.1 11.8097 16.1381 11.071C16.1406 10.6343 16.1355 10.1977 16.1711 9.76358C16.2523 9.07815 16.2346 8.3851 16.2904 7.69713C16.3564 6.95078 16.2803 6.1968 16.3945 5.45552C16.4173 4.65077 16.4681 3.84603 16.5062 3.04128C16.5011 2.5691 16.5011 2.09437 16.5493 1.62472ZM19.1032 5.28543C19.3012 5.53422 19.4561 5.81347 19.6211 6.0851C19.6846 6.63345 19.6211 7.18687 19.6693 7.73775C19.6998 8.51711 19.7455 9.29647 19.7582 10.0784C19.8318 10.7359 19.8394 11.3959 19.8369 12.056C19.8699 12.9623 19.9283 13.8685 19.9435 14.7748C20.0171 15.4298 20.0273 16.0899 20.0222 16.7499C20.0527 17.6537 20.1136 18.5574 20.1288 19.4612C20.1923 20.0527 20.2151 20.6492 20.2075 21.2458C20.1974 21.6799 20.2507 22.1115 20.2481 22.5456C19.5856 22.4136 18.994 22.0759 18.3772 21.8272C18.334 21.3271 18.3619 20.8219 18.4 20.3218C18.4711 19.8293 18.4381 19.3317 18.4838 18.8392C18.5549 18.0522 18.5269 17.2627 18.5726 16.4732C18.6564 15.8258 18.6285 15.1683 18.6894 14.5184C18.7529 13.6985 18.6894 12.8734 18.8036 12.056C18.824 11.2715 18.8798 10.4922 18.9128 9.70773C18.9052 9.13146 18.9255 8.55265 18.994 7.98146C19.0067 7.08278 19.0931 6.18665 19.1032 5.28543ZM21.6901 7.80883C21.8652 7.81899 22.0429 7.82407 22.2181 7.81899C22.2613 8.31148 22.2283 8.80398 22.2765 9.29647C22.3146 9.78389 22.3323 10.2738 22.3577 10.7613C22.4669 11.3502 22.3984 11.9493 22.4542 12.5434C22.4872 13.0587 22.5177 13.5766 22.5405 14.0945C22.6471 14.7469 22.5888 15.407 22.6471 16.0645C22.6878 16.5595 22.703 17.0545 22.7284 17.5496C22.8375 18.1182 22.769 18.6996 22.8223 19.2733C22.8604 19.8496 22.8959 20.4258 22.9035 21.0046C22.9645 21.5885 22.9949 22.1775 22.9746 22.7639C22.3298 22.8502 21.6774 22.835 21.0326 22.769C21.0199 22.1369 21.0833 21.5073 21.1037 20.8752C21.157 20.1796 21.0986 19.4764 21.2001 18.7833C21.228 17.9989 21.2737 17.217 21.3118 16.4351C21.3067 15.8563 21.3194 15.2775 21.3905 14.7038C21.4083 13.9828 21.4565 13.2644 21.4946 12.5459C21.4997 12.0534 21.4895 11.5609 21.5403 11.0684C21.6165 10.5353 21.5758 9.99714 21.6342 9.46148C21.6647 8.91314 21.6977 8.36226 21.6901 7.80883ZM15.5085 22.0303C15.6938 22.3044 15.902 22.5634 16.1051 22.8274C16.1584 23.8048 16.1051 24.7821 16.1584 25.757C16.1762 26.9298 16.2371 28.1001 16.2396 29.273C16.3336 30.3824 16.3133 31.4968 16.3234 32.6062C16.3666 33.2637 16.3361 33.9237 16.392 34.5813C16.4021 35.2591 16.4173 35.9394 16.4275 36.6172C16.5443 37.8891 16.4706 39.1686 16.5316 40.443C16.5493 41.5549 16.6052 42.6643 16.6077 43.7762C16.6484 44.5175 16.7144 45.2638 16.6687 46.0051C16.4605 46.1066 16.2777 46.2513 16.0975 46.396C15.9045 46.5052 15.7471 46.6702 15.544 46.7591C15.1886 46.8276 14.8256 46.8479 14.4702 46.9139C14.3763 46.9469 14.2773 46.9622 14.1783 46.9774C14.1656 46.1371 14.257 45.2994 14.2823 44.4591C14.2747 43.964 14.295 43.4665 14.3585 42.9765C14.3788 42.319 14.422 41.6615 14.4626 41.004C14.4727 40.5521 14.4524 40.0926 14.5362 39.6458C14.5616 39.0086 14.6048 38.3714 14.6479 37.7368C14.6606 37.2824 14.6352 36.8229 14.7215 36.3761C14.7469 35.7186 14.7951 35.0611 14.8358 34.4035C14.8332 33.9288 14.8383 33.4516 14.9145 32.9794C14.9348 32.3599 14.983 31.7431 15.0211 31.1262C15.0287 30.6743 15.0109 30.2199 15.0947 29.7731C15.1201 29.113 15.1683 28.4555 15.2064 27.7955C15.2013 27.2979 15.2191 26.8003 15.2876 26.3104C15.3054 25.6732 15.3689 25.0385 15.3943 24.4013C15.3663 23.6042 15.5212 22.8223 15.5085 22.0303ZM18.5422 24.711C18.6589 24.7593 18.7757 24.8101 18.8976 24.8507C19.0321 24.9243 19.1718 24.9852 19.3063 25.0588C19.3748 26.0489 19.3672 27.0466 19.3926 28.0392C19.5094 29.3111 19.4332 30.5931 19.4967 31.8675C19.5018 32.7306 19.5627 33.5937 19.5602 34.4569C19.5576 35.221 19.6363 35.98 19.6439 36.7416C19.6617 37.3814 19.6414 38.0211 19.6592 38.6608C19.6998 39.2955 19.6693 39.9352 19.7252 40.5699C19.7379 41.268 19.748 41.9687 19.7633 42.6668C19.7963 42.9435 19.8089 43.2253 19.8089 43.5045C19.0118 44.1519 18.2401 44.8322 17.3947 45.4136C17.4531 44.883 17.4074 44.3474 17.4633 43.8168C17.5445 43.2507 17.5242 42.6744 17.5826 42.1058C17.646 41.4914 17.575 40.8694 17.6867 40.2602C17.7197 39.3513 17.8161 38.4476 17.811 37.5388C17.8974 36.6985 17.9227 35.8556 17.9837 35.0128C17.9811 34.5178 17.9938 34.0202 18.0674 33.5277C18.0852 32.9108 18.1385 32.2965 18.1715 31.6796C18.1766 31.248 18.1614 30.8114 18.2426 30.3849C18.268 29.7045 18.3238 29.0267 18.3569 28.3489C18.3467 27.8742 18.3746 27.3969 18.4381 26.9247C18.4482 26.186 18.5447 25.4498 18.5422 24.711ZM27.8437 25.1375C28.0925 25.0258 28.3692 24.9852 28.6028 24.8405C28.6409 25.5793 28.6104 26.318 28.684 27.0517C28.7195 28.3261 28.7195 29.6005 28.7729 30.8748C28.7906 31.3699 28.7881 31.8649 28.7932 32.3625C28.8033 32.5275 28.6942 32.657 28.6256 32.7991C28.2626 33.548 27.8234 34.2563 27.3893 34.9671C27.336 35.0306 27.2878 35.0991 27.2421 35.1702C27.3208 34.6066 27.2954 34.038 27.3411 33.4719C27.435 32.8194 27.4045 32.1569 27.4655 31.5019C27.4985 31.0475 27.4909 30.5931 27.5289 30.1412C27.6254 29.4735 27.5924 28.7982 27.6559 28.1306C27.6965 27.6305 27.6584 27.1227 27.7473 26.6277C27.798 26.1301 27.7549 25.625 27.8437 25.1375ZM21.6901 25.7062C21.9617 25.7493 22.2359 25.7544 22.5075 25.7722C22.5329 26.054 22.5278 26.3332 22.5329 26.615C22.6192 27.6635 22.6116 28.7145 22.6141 29.7655C22.6598 31.2049 22.703 32.6468 22.7284 34.0888C22.8223 35.1321 22.7868 36.1857 22.8045 37.2316C22.8375 37.7444 22.8299 38.2597 22.8452 38.7751C22.8883 39.392 22.8858 40.0139 22.8883 40.6308C22.1775 41.3112 21.5073 42.0423 20.7355 42.6516C20.7812 42.1464 20.7432 41.6412 20.7939 41.136C20.8726 40.5775 20.8599 40.0114 20.9133 39.4503C20.9564 38.9883 20.9412 38.5263 20.9615 38.0643C20.9742 37.7774 21.0351 37.4956 21.0376 37.2087C21.0478 36.6375 21.1138 36.0714 21.1316 35.5002C21.1316 35.089 21.1265 34.6752 21.2027 34.2715C21.228 33.6547 21.2687 33.0378 21.3093 32.4209C21.3296 31.9461 21.294 31.4663 21.3854 30.9992C21.4108 30.3417 21.4591 29.6842 21.4997 29.0267C21.4997 28.5545 21.5022 28.0798 21.5758 27.6127C21.6063 26.978 21.6368 26.3434 21.6901 25.7062ZM24.8405 25.762C25.1172 25.762 25.3914 25.7316 25.6605 25.6707C25.7646 26.6404 25.7367 27.6178 25.762 28.5901C25.7697 29.4354 25.823 30.2783 25.823 31.1236C25.8179 31.8014 25.8661 32.4793 25.861 33.1571C25.9499 34.1649 25.922 35.1778 25.9524 36.1882C25.9474 36.4751 25.9931 36.7619 25.955 37.0463C25.3609 37.8231 24.7466 38.5872 24.0891 39.3107C24.0739 38.8208 24.1449 38.3359 24.1551 37.8485C24.1754 37.4981 24.1576 37.1453 24.2262 36.8C24.2896 35.7287 24.3201 34.6574 24.3912 33.5886C24.475 33.0149 24.4394 32.4336 24.4953 31.8573C24.5435 31.2861 24.513 30.7073 24.6019 30.1386C24.6501 29.5624 24.6374 28.9836 24.6907 28.4073C24.7339 27.9148 24.6933 27.4147 24.7821 26.9247C24.8024 26.5414 24.8304 26.153 24.8405 25.762ZM0 30.5931C0.0076159 41.9204 0 53.2504 0.00253863 64.5777C11.6092 64.5803 23.2133 64.5803 34.8199 64.5777C34.8199 53.2453 34.8224 41.9128 34.8173 30.5804C34.104 30.5499 33.3881 30.5753 32.6722 30.5651C31.7126 30.5753 30.753 30.5448 29.7959 30.5804C29.7909 30.8165 29.7909 31.0526 29.7959 31.2886C30.8977 31.309 31.9995 31.2912 33.1012 31.2963C33.4262 31.3013 33.7537 31.276 34.0786 31.3191C34.0786 42.1565 34.0786 52.9965 34.0786 63.8339C30.9992 63.8517 27.9173 63.8364 24.838 63.8415C16.8083 63.8364 8.77859 63.8491 0.751435 63.8365C0.748897 52.999 0.759051 42.1616 0.746358 31.3242C0.83521 31.309 0.924062 31.2937 1.01545 31.2937C4.24459 31.2963 7.47373 31.2937 10.7029 31.2937C11.6142 31.2836 12.5282 31.314 13.4395 31.2785C13.4725 31.0449 13.4548 30.8063 13.4471 30.5728C12.7389 30.5448 12.0306 30.5677 11.3223 30.5601C7.78345 30.5601 4.24459 30.5601 0.708278 30.5601C0.469647 30.5651 0.233554 30.5575 0 30.5931ZM32.1137 33.9644C32.1518 33.6877 32.1289 33.4059 32.1822 33.1317C32.2254 33.5709 32.2178 34.0151 32.2279 34.4569C32.233 35.8353 32.3117 37.2113 32.3092 38.5923C32.3523 39.1889 32.3066 39.788 32.3803 40.3795C32.4158 41.3873 32.4158 42.3977 32.4437 43.4055C32.4996 44.7637 32.492 46.1219 32.5402 47.4775C32.6087 48.1325 32.5859 48.7951 32.6037 49.4551C32.6138 50.1938 32.6341 50.9326 32.6595 51.6713C32.6849 52.2907 32.657 52.9102 32.695 53.5296C32.7154 53.9815 32.6824 54.4334 32.7458 54.8827C32.7915 56.0581 32.7814 57.2335 32.8271 58.4063C32.8829 59.7493 32.8397 61.0973 32.9464 62.4377C32.1543 62.5214 31.3547 62.4884 30.5575 62.5087C30.5397 62.4732 30.5067 62.3996 30.489 62.364C30.5601 62.0797 30.5347 61.7827 30.5651 61.4933C30.5677 60.8713 30.6438 60.257 30.6489 59.635C30.6489 59.2187 30.7301 58.8074 30.7403 58.3911C30.7657 57.5838 30.8292 56.7791 30.852 55.9743C30.9535 55.261 30.9256 54.54 30.9891 53.8241C31.0297 53.3367 30.9916 52.8416 31.0779 52.3568C31.1287 51.3489 31.1795 50.3411 31.2252 49.3332C31.3242 48.6605 31.2912 47.9776 31.3547 47.3023C31.3953 46.7895 31.3673 46.2742 31.4435 45.7639C31.5044 45.175 31.4841 44.5784 31.54 43.9894C31.5806 43.4868 31.545 42.979 31.6314 42.484C31.6796 41.8468 31.6771 41.2071 31.7329 40.5724C31.7684 40.118 31.7329 39.6585 31.8167 39.2092C31.8649 38.5948 31.8598 37.9779 31.9131 37.3636C31.9487 36.8736 31.9258 36.3786 31.9995 35.8912C32.0655 35.2489 32.0325 34.6041 32.1137 33.9644ZM28.7221 38.0465C28.8439 37.8916 28.9074 37.6454 29.1156 37.5946C29.1511 38.4019 29.1562 39.2066 29.1638 40.0139C29.207 40.6105 29.1613 41.2096 29.2349 41.8037C29.273 43.2228 29.2806 44.6419 29.3339 46.0609C29.3288 46.9063 29.3745 47.7466 29.3771 48.592C29.3771 48.6935 29.3897 48.7951 29.4101 48.8991C29.4659 50.1532 29.4481 51.4073 29.5014 52.6614C29.537 53.4636 29.5091 54.2683 29.5548 55.0706C29.5446 55.855 29.636 56.6343 29.6335 57.4162C29.636 58.8353 29.7172 60.2544 29.7172 61.6735C29.7147 61.9553 29.7629 62.2397 29.7248 62.5214C28.9226 62.5214 28.1179 62.5443 27.3157 62.5367C27.3131 62.232 27.3233 61.9249 27.3715 61.6253C27.4299 61.0465 27.4122 60.4651 27.4655 59.8889C27.5086 59.3761 27.4705 58.8557 27.5594 58.3454C27.6127 57.3376 27.6609 56.3297 27.7066 55.3219C27.7828 54.7685 27.7853 54.2074 27.8082 53.6489C27.8615 53.0955 27.8564 52.5421 27.8945 51.9887C27.991 51.3134 27.9605 50.6305 28.024 49.9527C28.0646 49.4602 28.029 48.9601 28.1154 48.4701C28.1636 47.772 28.1712 47.0713 28.2245 46.3757C28.2271 45.5481 28.3616 44.7307 28.3591 43.9056C28.4301 43.1872 28.3971 42.4612 28.4961 41.7453C28.5418 41.1817 28.5292 40.6156 28.5825 40.052C28.6104 39.3793 28.618 38.7065 28.7221 38.0465ZM25.2797 42.2606C25.5234 41.9991 25.762 41.7275 26.0083 41.4686C26.0718 41.989 26.0058 42.5196 26.0844 43.0374C26.1301 44.4565 26.1276 45.8756 26.186 47.2922C26.1911 48.2391 26.2165 49.186 26.2418 50.1329C26.3256 51.1382 26.2901 52.1486 26.3256 53.1564C26.3789 54.5349 26.384 55.9134 26.4195 57.2919C26.5008 58.1321 26.4754 58.9775 26.5008 59.8203C26.5059 60.7266 26.5668 61.6304 26.5617 62.5367C25.7544 62.5367 24.9446 62.5392 24.1348 62.5367C24.1576 62.1051 24.1576 61.6735 24.1906 61.2445C24.2846 60.5794 24.2541 59.9041 24.315 59.2365C24.3582 58.7338 24.3201 58.2235 24.4064 57.726C24.4521 57.1294 24.447 56.5328 24.5003 55.9388C24.5333 55.464 24.5207 54.9868 24.5714 54.5146C24.6501 53.9612 24.6222 53.3976 24.6704 52.8416C24.711 52.372 24.706 51.9023 24.7364 51.4327C24.8405 50.6736 24.8101 49.907 24.8811 49.1454C24.8837 48.2975 25.0182 47.4597 25.0157 46.6118C25.0766 45.9569 25.069 45.2968 25.1248 44.6393C25.2239 43.8498 25.1985 43.0501 25.2797 42.2606ZM22.6471 44.8678C22.7487 44.784 22.8528 44.7079 22.9645 44.6393C23.0051 45.4847 22.9569 46.33 23.0076 47.1754C23.0051 47.9776 23.0711 48.7798 23.0686 49.5846C23.0812 49.9755 23.0812 50.3639 23.0914 50.7549C23.2082 51.9861 23.132 53.2275 23.1929 54.4613C23.2133 55.6316 23.2691 56.8044 23.2716 57.9747C23.3402 58.7744 23.3529 59.5792 23.3503 60.3814C23.3351 61.0998 23.3884 61.8182 23.3884 62.5392C22.5735 62.5265 21.7561 62.5849 20.9412 62.5519C20.9539 62.1686 21.025 61.7929 21.0351 61.4095C21.0478 60.7368 21.1443 60.0691 21.129 59.3964C21.1189 58.9699 21.2027 58.5485 21.2204 58.122C21.2331 57.434 21.3296 56.7511 21.3144 56.0632C21.3042 55.6291 21.4032 55.2 21.4083 54.7659C21.421 54.1262 21.5124 53.4915 21.4997 52.8492C21.5048 52.5421 21.5098 52.2298 21.5682 51.9277C21.5936 51.2474 21.6495 50.5721 21.6825 49.8943C21.6748 49.4196 21.6977 48.9423 21.7637 48.4701C21.7815 47.8532 21.8373 47.2389 21.8678 46.622C21.8703 46.2666 21.8652 45.9137 21.9059 45.5608C22.1546 45.3273 22.4085 45.1064 22.6471 44.8678ZM19.2428 47.6958C19.4256 47.5257 19.6465 47.4013 19.8394 47.2414C19.8394 48.823 19.9384 50.402 19.941 51.9861C20.0374 53.093 20.0146 54.2049 20.0247 55.3168C20.0679 55.954 20.0374 56.5963 20.0907 57.2335C20.1161 58.1194 20.0984 59.0054 20.1694 59.8889C20.2101 60.7774 20.205 61.6685 20.2101 62.557C19.4078 62.59 18.6031 62.5671 17.7984 62.5824C17.7882 62.0721 17.806 61.5618 17.877 61.0566C17.8974 60.2544 17.9964 59.4573 17.9862 58.6526C17.9837 58.2565 18.0725 57.8707 18.0776 57.4746C18.0903 56.8171 18.1868 56.1622 18.1715 55.5047C18.1588 55.0452 18.2578 54.5958 18.2655 54.1389C18.2807 53.5017 18.3695 52.8696 18.3569 52.2324C18.3594 51.9226 18.3695 51.6129 18.4254 51.3108C18.4508 50.7143 18.4889 50.1177 18.5295 49.5211C18.5599 49.087 18.5117 48.6504 18.5879 48.2188C18.763 48.0005 19.022 47.8659 19.2428 47.6958ZM15.3029 50.3563C15.7624 50.0568 16.2396 49.7775 16.694 49.4703C16.7347 50.7422 16.7804 52.0115 16.7905 53.2834C16.8743 54.3293 16.8718 55.3777 16.8718 56.4262C16.9098 57.825 16.9657 59.2238 16.9758 60.6225C17.0317 61.2724 17.0444 61.9274 17.0545 62.5798C16.2447 62.6255 15.4323 62.6103 14.62 62.6179C14.6327 62.1076 14.6504 61.5974 14.6631 61.0871C14.7545 60.2773 14.7672 59.4624 14.8307 58.65C14.8307 58.155 14.8383 57.6574 14.9119 57.1675C14.9373 56.3221 15.0363 55.4818 15.0262 54.6364C15.1099 53.7555 15.1506 52.8696 15.2039 51.9861C15.1861 51.4403 15.2445 50.897 15.3029 50.3563ZM13.2974 51.5089C13.3811 51.4555 13.4751 51.4302 13.569 51.4022C13.5969 52.4989 13.6375 53.5981 13.6477 54.6974C13.767 56.0098 13.6908 57.3299 13.7543 58.6449C13.7543 59.3862 13.8152 60.125 13.8102 60.8688C13.8305 61.4476 13.8127 62.0264 13.8762 62.6027C13.0562 62.6357 12.2337 62.6306 11.4137 62.6255C11.4416 62.1838 11.4772 61.7446 11.5 61.3029C11.5051 60.8713 11.4899 60.4321 11.5711 60.0057C11.5965 59.3253 11.6472 58.6475 11.6853 57.9697C11.6777 57.4949 11.698 57.0202 11.7666 56.5506C11.7843 55.954 11.8326 55.36 11.8681 54.7634C11.8808 54.309 11.8529 53.852 11.9417 53.4027C11.9925 52.994 11.9163 52.5675 12.0509 52.1714C12.0839 52.1587 12.1499 52.1359 12.1829 52.1257C12.5459 51.9074 12.9293 51.7221 13.2974 51.5089ZM8.74305 53.7632C9.31932 53.5575 9.84735 53.2326 10.4262 53.032C10.4236 53.5677 10.482 54.1008 10.4744 54.6339C10.4947 55.2711 10.4744 55.9108 10.5379 56.5455C10.6013 58.1321 10.5556 59.7213 10.6496 61.3054C10.6597 61.7446 10.6597 62.1838 10.6724 62.6255C9.87782 62.6738 9.07815 62.6052 8.28356 62.6738C8.22517 62.5544 8.26325 62.4123 8.26071 62.2853C8.26833 61.8766 8.31656 61.4704 8.33179 61.0617C8.37749 60.5895 8.33433 60.1148 8.38764 59.6426C8.46634 59.1095 8.44349 58.5662 8.50188 58.0306C8.56535 57.3553 8.50442 56.6724 8.61358 56.0022C8.64658 55.2559 8.70497 54.5095 8.74305 53.7632ZM5.48091 55.1594C6.06987 54.8954 6.66899 54.6517 7.27826 54.441C7.31888 55.4133 7.33919 56.383 7.35188 57.3553C7.4712 58.7313 7.40011 60.1148 7.46104 61.4958C7.44327 61.8919 7.51943 62.2955 7.46104 62.689C6.65883 62.6814 5.85663 62.7271 5.05442 62.6966C5.05949 62.5824 5.06965 62.4656 5.0925 62.3539C5.18896 60.5032 5.2702 58.6526 5.38952 56.8019C5.37428 56.251 5.43013 55.7052 5.48091 55.1594ZM3.17075 55.9794C3.49824 55.8956 3.79779 55.7331 4.13289 55.6697C4.21921 56.3703 4.19636 57.0786 4.21413 57.7818C4.22428 58.5434 4.24459 59.305 4.27252 60.0666C4.30044 60.7038 4.26998 61.3435 4.3106 61.9807C4.31568 62.2193 4.33345 62.4605 4.30806 62.6991C3.57439 62.7398 2.83311 62.7169 2.09691 62.7118C2.08676 62.2828 2.16545 61.8563 2.14768 61.4273C2.1883 59.7188 2.18069 58.0078 2.25938 56.2993C2.56148 56.1926 2.87373 56.1038 3.17075 55.9794Z" fill="#008598"/>
<path fill-rule="evenodd" clip-rule="evenodd" d="M62.6647 28.9556C62.6748 28.9124 62.6977 28.8286 62.7078 28.7855C62.85 28.915 62.8906 29.1079 62.9845 29.2704C65.2058 33.7561 67.4119 38.2521 69.6383 42.7353C69.9988 43.441 70.3161 44.1696 70.702 44.8627C71.1564 44.8627 71.6133 44.8627 72.0677 44.8627C72.0652 45.2587 72.0728 45.6547 72.0652 46.0507C70.3085 46.0507 68.5517 46.0507 66.795 46.0507C66.5615 46.0533 66.3279 46.0609 66.0943 46.0279C66.0994 45.6395 66.0969 45.2511 66.0969 44.8627C66.7645 44.8449 67.4373 44.8931 68.1024 44.8373C68.0516 44.5986 67.9323 44.3854 67.8282 44.1696C67.2291 42.8343 66.6097 41.5091 65.9979 40.1814C65.9522 40.0875 65.8354 40.1078 65.7516 40.1027C63.6014 40.1078 61.4512 40.09 59.301 40.0926C58.6562 41.5167 58.0418 42.9536 57.4071 44.3829C57.3158 44.5428 57.2396 44.7179 57.2498 44.9058C57.76 44.916 58.2728 44.8753 58.778 44.9287C58.7678 45.312 58.7856 45.6953 58.7653 46.0787C57.2498 46.0736 55.7342 46.0837 54.2212 46.0736C54.2237 45.7029 54.2059 45.3323 54.2237 44.9617C54.2364 44.949 54.2592 44.9236 54.2719 44.9083C54.7187 44.8753 55.1681 44.9464 55.6123 44.8652C56.0997 43.6847 56.6557 42.5347 57.1482 41.3568C58.1687 39.1025 59.1563 36.833 60.1666 34.5736C60.6997 33.322 61.2608 32.0832 61.8117 30.8392C62.0985 30.2097 62.3626 29.575 62.6647 28.9556ZM62.2102 33.0986C61.9564 33.746 61.6467 34.3705 61.3725 35.0102C60.8495 36.1602 60.3545 37.3204 59.8493 38.478C59.7681 38.6176 59.697 38.7649 59.6868 38.9299C60.7429 38.9324 61.7964 38.9426 62.8525 38.9476C63.6674 38.9959 64.4849 38.9781 65.2998 38.9781C65.2566 38.808 65.1754 38.6557 65.0941 38.5034C64.1802 36.6933 63.2612 34.8884 62.3549 33.0758C62.3194 33.0834 62.2458 33.0936 62.2102 33.0986ZM44.5794 30.6869C45.2369 30.6793 45.897 30.7047 46.5545 30.6615C48.2021 30.6615 49.8471 30.6565 51.4947 30.659C51.7257 30.659 51.9567 30.6412 52.1852 30.6844C52.1801 31.7862 52.1852 32.8905 52.1826 33.9948C51.6901 33.9897 51.1977 34.0049 50.7052 33.9872C50.7102 33.3626 50.7026 32.7381 50.7102 32.1136C50.7128 31.9969 50.6975 31.8826 50.6772 31.7684C48.4965 31.7735 46.3159 31.7684 44.1377 31.7633C44.1453 36.1831 44.1326 40.6028 44.1352 45.0226C45.2928 45.0251 46.4529 45.0226 47.6106 45.0226C48.2376 45.0175 48.9002 45.0734 49.4841 44.7916C50.1568 44.4996 50.6671 43.9132 50.9616 43.2481C51.5632 41.9077 51.4337 40.2043 50.4691 39.0619C50.1111 38.6252 49.6288 38.3028 49.1109 38.082C48.2401 37.7443 47.2882 37.7088 46.3692 37.8053C46.3565 38.4856 46.3869 39.166 46.3819 39.8463C46.0163 39.8945 45.6457 39.8666 45.2801 39.8666C45.2776 38.8791 45.2699 37.8916 45.2826 36.904C46.0747 36.899 46.8693 36.9091 47.6639 36.8888C49.1058 36.8177 50.6138 37.0767 51.8374 37.8839C52.1268 38.0642 52.3807 38.2927 52.6345 38.5161C52.6904 38.5795 52.7488 38.643 52.8071 38.7065C53.1067 39.039 53.3428 39.4198 53.5535 39.8108C53.7312 40.2119 53.848 40.6358 53.9394 41.0649C53.9597 41.3822 53.9648 41.7046 53.9343 42.0219C53.848 42.3393 53.7921 42.6667 53.655 42.9663C53.3733 43.6847 52.8503 44.2788 52.274 44.7789C51.8069 45.1216 51.3017 45.4135 50.761 45.6268C49.9309 45.939 49.0474 46.0761 48.1614 46.071C45.3283 46.0761 42.4952 46.071 39.6621 46.0863C39.6545 45.7004 39.6621 45.3145 39.6545 44.9287C40.3018 44.9337 40.9492 44.9464 41.5991 44.9388C41.6118 40.5597 41.6092 36.1805 41.6016 31.8014C40.967 31.776 40.3323 31.7608 39.6976 31.7582C39.7205 31.4003 39.6443 31.0271 39.7459 30.6793C41.3579 30.6971 42.9699 30.6818 44.5794 30.6869ZM72.6948 30.6615C73.7509 30.6387 74.8095 30.659 75.8681 30.6514C76.4266 30.6666 76.9876 30.6209 77.5436 30.6742C77.5258 31.0068 77.569 31.3419 77.5207 31.6694C77.0638 31.6973 76.6043 31.7202 76.1473 31.7176C76.1194 33.2865 76.1346 34.8579 76.1397 36.4293C79.049 36.4344 81.9608 36.4319 84.8701 36.4319C84.9031 35.3631 84.8802 34.2918 84.8878 33.223C84.8701 32.7102 84.9056 32.1949 84.8701 31.6821C84.469 31.6795 84.0679 31.6821 83.6668 31.6795C83.6693 31.3368 83.6617 30.9941 83.6718 30.6514C84.6721 30.6412 85.6723 30.6514 86.6725 30.6488C87.2919 30.6641 87.9164 30.6184 88.5359 30.6717C88.5333 31.0017 88.5308 31.3317 88.5384 31.6618C88.0713 31.71 87.6016 31.6694 87.1345 31.6846C87.1218 36.0612 87.1269 40.4378 87.132 44.8144C87.6245 44.8525 88.1221 44.7713 88.612 44.8474C88.6044 45.2079 88.6069 45.5684 88.6095 45.9289C86.9644 45.9543 85.3169 45.934 83.6693 45.9416C83.6693 45.5735 83.6693 45.2079 83.6693 44.8398C84.0679 44.7763 84.4715 44.8703 84.8751 44.817C84.9132 43.0094 84.865 41.2019 84.8929 39.397C84.8878 38.7344 84.8955 38.0693 84.8777 37.4067C81.9659 37.4092 79.0566 37.4092 76.1448 37.4067C76.1321 39.8209 76.1448 42.2352 76.1372 44.6494C76.1473 44.7154 76.1118 44.8677 76.2336 44.8398C76.6855 44.8652 77.145 44.7941 77.5893 44.8804C77.569 45.2206 77.6045 45.5633 77.5715 45.9035C77.4877 46 77.3456 45.972 77.2339 45.9796C75.7208 45.9695 74.2104 45.9949 72.6973 45.972C72.6999 45.6039 72.6999 45.2384 72.6973 44.8703C73.0908 44.8195 73.4868 44.8576 73.8829 44.8373C73.9133 44.6316 73.9108 44.4235 73.9032 44.2153C73.9184 40.613 73.8981 37.0132 73.9083 33.4109C73.8905 32.8371 73.9438 32.2583 73.8753 31.6871C73.4818 31.6871 73.0883 31.6897 72.6948 31.6846C72.6973 31.3394 72.6973 30.9992 72.6948 30.6615ZM90.5109 30.6057C92.1356 30.6133 93.7604 30.6057 95.3825 30.6082C95.3825 30.9611 95.38 31.314 95.3851 31.6668C94.9154 31.6592 94.4458 31.6897 93.9761 31.6846C93.966 36.0764 93.9685 40.4708 93.9736 44.8627C94.4534 44.8677 94.9357 44.8576 95.4181 44.8703C95.4181 45.2282 95.4156 45.5836 95.4206 45.9416C95.1617 45.9974 94.8951 45.972 94.6336 45.9771C93.2628 45.9873 91.8919 45.9695 90.5211 46.0152C90.4982 45.6293 90.516 45.246 90.5084 44.8601C90.912 44.8652 91.3131 44.8652 91.7168 44.8601C91.7218 40.4556 91.7244 36.0536 91.7168 31.6491C91.3131 31.6465 90.912 31.644 90.5109 31.6516C90.5109 31.3013 90.5109 30.9535 90.5109 30.6057ZM99.4063 31.6821C99.9851 31.6846 100.561 31.6846 101.14 31.6846C101.117 31.7481 101.097 31.8141 101.079 31.8775C99.7871 32.9565 98.5152 34.0633 97.2307 35.1473C96.4234 35.8784 95.5603 36.5461 94.7631 37.2874C94.8241 37.3255 94.8799 37.3737 94.9307 37.427C95.2404 37.79 95.5983 38.1048 95.8979 38.478C96.1086 38.6938 96.3117 38.9146 96.5249 39.1279C98.1827 40.9379 99.881 42.7099 101.549 44.5123C101.668 44.6266 101.79 44.7484 101.843 44.9109C101.465 44.9185 101.087 44.8957 100.709 44.9083C100.704 45.2663 100.709 45.6242 100.706 45.9847C100.962 46.0279 101.221 46.0076 101.48 46.0101C103.26 46.0127 105.04 46.0076 106.817 46.0127C106.834 45.9898 106.872 45.9441 106.89 45.9213C106.913 45.5709 106.949 45.2206 106.936 44.8703C106.349 44.883 105.76 44.9236 105.174 44.9033C104.976 44.8601 104.867 44.6672 104.737 44.5326C103.689 43.4436 102.602 42.3926 101.572 41.2857C100.272 39.991 99.0128 38.6582 97.7206 37.3585C97.5861 37.2163 97.416 37.097 97.35 36.904C98.9443 35.5053 100.544 34.1141 102.135 32.7153C102.541 32.3853 102.907 31.9994 103.336 31.6948C103.89 31.6643 104.448 31.6998 105.001 31.6719C105.009 31.3165 105.004 30.9611 105.004 30.6057C103.138 30.6032 101.272 30.6057 99.4063 30.6032C99.4088 30.9662 99.4088 31.3241 99.4063 31.6821ZM95.6364 48.6731C95.7684 48.5107 95.908 48.3558 96.068 48.2187C96.1137 48.8762 96.0756 49.5363 96.0908 50.1938C96.0959 53.9789 96.0984 57.7614 96.1035 61.5465C96.1213 62.2117 96.068 62.8819 96.1365 63.5444C96.5909 63.5521 97.0454 63.5191 97.4998 63.5698C97.4947 63.9202 97.5023 64.2705 97.4922 64.6208C95.8192 64.6183 94.1462 64.6234 92.4758 64.6157C92.3717 64.6361 92.3108 64.532 92.3133 64.4431C92.3032 64.1537 92.2905 63.8592 92.321 63.5698C92.7221 63.5724 93.1232 63.5724 93.5243 63.5724C93.5953 63.5597 93.7527 63.5978 93.7223 63.4658C93.7299 59.932 93.7274 56.3982 93.7223 52.8644C93.5928 52.9076 93.4786 52.9787 93.4126 53.1031C92.9252 53.6641 92.4174 54.2099 91.93 54.7684C91.4426 55.3294 90.9374 55.8727 90.45 56.4337C89.9575 56.9897 89.4599 57.5431 88.9674 58.0991C88.216 58.9343 87.4798 59.7847 86.741 60.6276C86.67 60.6809 86.6141 60.7469 86.5684 60.823C86.1216 61.3028 85.6951 61.8029 85.2585 62.2929C85.1899 62.3488 85.1341 62.4148 85.0859 62.4909C84.6391 62.9707 84.2151 63.4734 83.7759 63.9582C83.7125 64.0192 83.6566 64.0852 83.6058 64.1563C83.2682 64.5193 82.9356 64.8925 82.6234 65.2758C82.5955 60.2874 82.6361 55.2964 82.598 50.308C82.5929 50.2674 82.5802 50.1887 82.5751 50.1481C82.1106 50.1506 81.6435 50.1506 81.1764 50.1532C81.1738 49.8079 81.1764 49.4627 81.1764 49.1174C82.9229 49.1149 84.667 49.1199 86.4136 49.1123C86.4059 49.4576 86.4059 49.8028 86.3983 50.1506C85.9287 50.1557 85.459 50.1379 84.9919 50.1608C84.9843 51.8591 84.9868 53.5575 84.9868 55.2558C84.9335 56.9618 84.9742 58.6703 84.9564 60.3762C84.997 60.3712 85.0808 60.3585 85.1239 60.3534C85.9947 59.3608 86.8908 58.3936 87.7641 57.401C88.3353 56.7942 88.8811 56.1697 89.4396 55.5528C89.8128 55.1441 90.1809 54.7278 90.5541 54.3216C90.7368 54.1134 90.9298 53.9154 91.11 53.7047C91.4781 53.2909 91.8462 52.8797 92.2219 52.4735C92.3997 52.2628 92.5977 52.0673 92.7754 51.854C93.3237 51.2321 93.8924 50.6253 94.4433 50.0034C94.8291 49.554 95.2353 49.1174 95.6364 48.6731ZM38.535 49.1174C40.3856 49.059 42.2414 49.125 44.092 49.0768C44.7698 49.1199 45.4502 49.0869 46.1229 49.1986C46.9023 49.2926 47.6842 49.4855 48.3722 49.8739C48.8951 50.1735 49.3521 50.6279 49.5577 51.2042C49.7938 51.717 49.6948 52.2958 49.6795 52.839C49.578 53.2985 49.4308 53.7631 49.1287 54.1337C48.6387 54.7506 47.8771 55.0857 47.113 55.2101C46.8312 55.2837 46.5393 55.2685 46.2549 55.332C46.2549 55.4056 46.2524 55.4818 46.2524 55.5579C47.0368 55.761 47.8238 55.9819 48.5499 56.35C48.8088 56.4997 49.0652 56.6571 49.3064 56.8348C49.4891 57.0125 49.6745 57.1877 49.842 57.3806C50.2 57.8579 50.4411 58.424 50.5274 59.0155C50.7204 59.767 50.5782 60.5514 50.3701 61.2825C50.2863 61.5795 50.1187 61.841 50.035 62.1355L49.9867 62.1279C49.9207 62.331 49.7811 62.4935 49.6618 62.6661C49.4358 62.9377 49.1794 63.1814 48.9154 63.415C48.7225 63.5292 48.5422 63.6612 48.3518 63.7805C48.2274 63.8313 48.1056 63.8897 47.9939 63.9659C46.9404 64.4152 45.7827 64.5777 44.6429 64.5523C42.7313 64.5523 40.8172 64.5497 38.9056 64.5523C38.771 64.5421 38.6263 64.5751 38.5019 64.5218C38.4791 63.5343 38.5019 62.5468 38.4918 61.5592C38.5121 61.5339 38.5502 61.4856 38.5705 61.4602C39.0681 61.4628 39.5656 61.4628 40.0657 61.4602C40.1064 62.0873 40.0657 62.7169 40.0886 63.3439C41.7514 63.3591 43.4142 63.3439 45.0745 63.3515C45.6914 63.349 46.3184 63.1662 46.788 62.7549C46.8566 62.7016 46.9226 62.6432 46.981 62.5823C47.7197 61.8283 48.0193 60.7139 47.8949 59.6832C47.8441 58.485 47.1587 57.34 46.1432 56.7054C45.2039 56.0885 44.0438 55.9336 42.942 55.9666C42.8989 56.5353 42.9293 57.1065 42.9242 57.6751C42.4851 57.7513 42.0357 57.7157 41.5915 57.7411C41.5889 56.8095 41.594 55.8778 41.5889 54.9486C42.4622 54.9461 43.3355 54.9563 44.2088 54.9461C44.9221 54.8979 45.6558 54.7405 46.2422 54.3089C46.7195 53.9586 47.1105 53.4356 47.1688 52.8314C47.2399 52.4811 47.146 52.1308 47.1308 51.7804C47.1358 51.2651 46.8058 50.7827 46.3489 50.5593C45.7193 50.2623 45.011 50.2369 44.3306 50.1836C42.9242 50.1811 41.5153 50.1735 40.1089 50.1862C40.1038 50.5949 40.1038 51.0036 40.1064 51.4149C40.1038 51.5342 40.1114 51.6611 40.0556 51.7728C39.558 51.8414 39.0503 51.7322 38.5527 51.8033C38.4664 51.6687 38.4918 51.5037 38.4918 51.3539C38.4943 50.8386 38.4918 50.3258 38.4943 49.813C38.5019 49.5896 38.474 49.351 38.535 49.1174ZM51.6622 49.1199C52.3451 49.0692 53.0305 49.1098 53.716 49.0971C56.7141 49.0996 59.7097 49.0895 62.7078 49.1022C62.7154 50.1405 62.7053 51.1788 62.7129 52.2171C62.3118 52.2095 61.9107 52.2247 61.5121 52.2145C61.4842 51.5697 61.5451 50.9198 61.4791 50.2801C59.7148 50.2852 57.9529 50.2826 56.1886 50.2826C55.8814 50.2877 55.5717 50.2623 55.2671 50.3055C55.262 51.7525 55.2671 53.1995 55.2645 54.644C55.2392 54.7532 55.3229 54.8547 55.4372 54.8319C56.5491 54.8344 57.661 54.8319 58.7729 54.8319C59.2933 54.8446 59.8138 54.8065 60.3342 54.8547C60.3291 55.7965 60.3316 56.7409 60.3316 57.6827C59.9965 57.6827 59.6614 57.6827 59.3263 57.6802C59.3238 57.0912 59.3289 56.5048 59.3263 55.9159C58.7348 55.8549 58.1357 55.9057 57.5417 55.8905C56.8233 55.893 56.1048 55.8803 55.3864 55.8955C55.2645 55.8879 55.3204 56.0479 55.3052 56.1189C55.3077 58.5154 55.3077 60.9119 55.3052 63.3084C55.5717 63.3871 55.8484 63.3058 56.1226 63.3261C56.7166 63.3718 57.3132 63.3464 57.9098 63.354C59.4 63.3591 60.8901 63.3515 62.3803 63.3617C62.4793 63.0976 62.4133 62.8082 62.4311 62.5341C62.4463 62.0467 62.3778 61.5592 62.426 61.0744C62.8424 61.0363 63.2587 61.0642 63.6776 61.049C63.7613 61.2876 63.7182 61.544 63.7258 61.7928C63.7334 62.5138 63.7131 63.2347 63.7258 63.9557C63.7233 64.1639 63.7461 64.3771 63.6776 64.5777C60.1108 64.5675 56.544 64.5751 52.9798 64.5726C52.533 64.5624 52.0811 64.598 51.6343 64.5497C51.6495 64.1486 51.5988 63.745 51.6648 63.349C52.0608 63.3591 52.4568 63.3515 52.8528 63.354C52.9366 63.3642 53.0788 63.3464 53.0508 63.2246C53.0508 58.881 53.0508 54.5374 53.0508 50.1938C52.5888 50.1862 52.1242 50.2115 51.6622 50.176C51.6673 49.8257 51.6648 49.4728 51.6622 49.1199ZM96.9311 49.2088C96.9235 49.7647 96.9311 50.3182 96.9286 50.8741C96.9413 51.3565 96.8981 51.8414 96.9463 52.3212C97.2764 52.377 97.6216 52.3516 97.9593 52.3668C97.9999 51.656 97.9415 50.9427 97.9948 50.2344C99.452 50.2395 100.909 50.2242 102.364 50.242C102.369 54.6872 102.361 59.1298 102.366 63.5749C101.937 63.6231 101.501 63.5622 101.072 63.6079C101.018 63.9176 101.044 64.2451 101.061 64.5599C101.138 64.5751 101.216 64.5827 101.295 64.5802C102.364 64.5751 103.433 64.5802 104.504 64.5777C105.032 64.565 105.568 64.6031 106.093 64.5599C106.134 64.2476 106.126 63.9202 106.096 63.6079C105.639 63.5622 105.177 63.6257 104.717 63.5724C104.725 59.1272 104.704 54.6821 104.727 50.2369C106.212 50.2319 107.697 50.2319 109.183 50.2369C109.223 50.9478 109.147 51.6636 109.221 52.3694C109.477 52.3643 109.736 52.3668 109.995 52.3694C110.005 51.2854 109.995 50.1989 110 49.1149C108.972 49.1123 107.944 49.1149 106.913 49.1123C103.664 49.0666 100.414 49.1022 97.1621 49.0869C97.0733 49.0946 96.9083 49.0692 96.9311 49.2088ZM64.9113 49.125C66.5411 49.1301 68.1735 49.1098 69.8033 49.1352C69.7982 49.4804 69.8033 49.8257 69.7982 50.1709C69.3209 50.2065 68.8437 50.1938 68.369 50.2014C68.3588 51.783 68.369 53.3671 68.3639 54.9486C69.8769 54.9791 71.3925 54.9537 72.908 54.9613C74.1367 54.9537 75.368 54.9766 76.5992 54.9512C76.6043 53.362 76.5992 51.7753 76.6017 50.1887C76.2006 50.1379 75.7945 50.1862 75.3934 50.1582C75.3934 49.8155 75.3934 49.4728 75.3934 49.1301C77.0206 49.1225 78.6479 49.1225 80.2751 49.1301C80.2751 49.4779 80.2701 49.8257 80.2777 50.1709C79.7903 50.2039 79.3029 50.1557 78.818 50.1938C78.823 54.6034 78.8154 59.013 78.8205 63.4226C79.3105 63.4353 79.8004 63.4226 80.2904 63.4302C80.3386 63.8059 80.3056 64.1842 80.3132 64.5624C79.2445 64.5624 78.1732 64.5624 77.1044 64.5624C76.5332 64.5548 75.962 64.6107 75.3908 64.5548C75.3883 64.1893 75.3908 63.8237 75.3883 63.4607C75.7818 63.3947 76.1854 63.4404 76.5814 63.4302C76.6221 61.0794 76.584 58.7261 76.5992 56.3728C76.6017 56.2281 76.5967 56.0809 76.5662 55.9412C73.8346 55.9438 71.1005 55.9387 68.369 55.9438C68.3613 58.4494 68.3613 60.955 68.369 63.4607C68.8589 63.4784 69.3539 63.4353 69.8439 63.4886C69.8363 63.8491 69.8388 64.2121 69.8414 64.5751C68.1963 64.5904 66.5538 64.5878 64.9088 64.5827C64.9164 64.2096 64.9113 63.8389 64.9139 63.4658C65.3099 63.4658 65.7034 63.4632 66.0994 63.4658C66.1477 63.2017 66.135 62.9326 66.135 62.6686C66.1273 59.1704 66.135 55.6747 66.135 52.1765C66.1223 51.5063 66.1654 50.8361 66.102 50.1709C65.7059 50.1709 65.3099 50.1684 64.9164 50.1709C64.9113 49.8181 64.9139 49.4703 64.9113 49.125Z" fill="#6F6F6F"/>
</mask>
<g mask="url(#mask0_739_3501)">
<rect x="-20.4972" y="-4.78268" width="146.897" height="78.5726" fill="#949494"/>
</g>
</svg>
