<svg width="30" height="30" viewBox="0 0 30 30" fill="none" xmlns="http://www.w3.org/2000/svg">
<g clip-path="url(#clip0_902_11042)">
<path d="M27.7434 8.13927L27.7425 8.11593C27.7294 7.82776 27.7207 7.52289 27.7154 7.18369C27.691 5.52957 26.376 4.16132 24.7217 4.06885C21.2724 3.87636 18.6041 2.75164 16.3243 0.529429L16.3048 0.51089C15.5612 -0.170948 14.4394 -0.170948 13.6956 0.51089L13.6761 0.529429C11.3962 2.75164 8.72792 3.87636 5.27868 4.06908C3.62456 4.16132 2.30941 5.52957 2.28492 7.18392C2.27988 7.52083 2.27095 7.8257 2.25791 8.11593L2.25654 8.17017C2.18947 11.6874 2.10616 16.0647 3.57054 20.0379C4.37575 22.2228 5.59523 24.122 7.19488 25.6832C9.01677 27.4612 11.4031 28.8727 14.2874 29.8784C14.3813 29.9111 14.4788 29.9377 14.5781 29.9576C14.7182 29.9855 14.8592 29.9995 15.0002 29.9995C15.1412 29.9995 15.2824 29.9855 15.4222 29.9576C15.5216 29.9377 15.6198 29.9109 15.7141 29.878C18.595 28.8704 20.9788 27.4582 22.7991 25.6805C24.398 24.1188 25.6175 22.2191 26.4234 20.0338C27.8933 16.0487 27.8102 11.6631 27.7434 8.13927ZM24.7718 19.4247C35.8354 -10.5728 11.5954 55.1502 24.7718 19.4247V19.4247Z" fill="#07B1FD"/>
<path d="M14.9999 7.52393C10.8772 7.52393 7.52344 10.878 7.52344 15.0004C7.52344 19.123 10.8772 22.477 14.9999 22.477C19.1223 22.477 22.4763 19.123 22.4763 15.0004C22.4763 10.878 19.1223 7.52393 14.9999 7.52393ZM14.9999 20.7164C11.8479 20.7164 9.28377 18.1523 9.28377 15.0004C9.28377 11.8484 11.8479 9.28426 14.9999 9.28426C18.1516 9.28426 20.7157 11.8484 20.7157 15.0004C20.7157 18.1523 18.1516 20.7164 14.9999 20.7164Z" fill="white"/>
<path d="M17.1482 12.6789L13.6756 16.1515L12.733 15.209C12.3892 14.8652 11.8319 14.8652 11.4881 15.209C11.1446 15.5527 11.1446 16.1101 11.4881 16.4536L13.0532 18.0187C13.2251 18.1906 13.4503 18.2764 13.6756 18.2764C13.9008 18.2764 14.126 18.1906 14.2979 18.0187L18.393 13.9236C18.7366 13.5798 18.7366 13.0225 18.393 12.6789C18.0493 12.3349 17.4919 12.3349 17.1482 12.6789Z" fill="white"/>
</g>
<defs>
<clipPath id="clip0_902_11042">
<rect width="30" height="30" fill="white"/>
</clipPath>
</defs>
</svg>
