<svg width="16" height="20" viewBox="0 0 16 20" fill="none" xmlns="http://www.w3.org/2000/svg">
<path d="M7.78811 2.89844C7.0922 2.89844 6.41192 3.1048 5.83329 3.49142C5.25467 3.87805 4.80368 4.42758 4.53737 5.07051C4.27106 5.71345 4.20138 6.42092 4.33714 7.10345C4.47291 7.78599 4.80802 8.41294 5.3001 8.90502C5.79218 9.3971 6.41913 9.73222 7.10167 9.86798C7.7842 10.0037 8.49167 9.93407 9.13461 9.66775C9.77754 9.40144 10.3271 8.95046 10.7137 8.37183C11.1003 7.7932 11.3067 7.11292 11.3067 6.41701C11.3067 5.48383 10.936 4.58887 10.2761 3.929C9.61626 3.26914 8.72129 2.89844 7.78811 2.89844V2.89844ZM7.78811 8.70746C7.3351 8.70746 6.89226 8.57313 6.5156 8.32145C6.13894 8.06978 5.84537 7.71206 5.67201 7.29353C5.49865 6.87501 5.45329 6.41447 5.54167 5.97017C5.63004 5.52586 5.84819 5.11774 6.16851 4.79742C6.48884 4.47709 6.89696 4.25895 7.34126 4.17057C7.78557 4.08219 8.2461 4.12755 8.66463 4.30091C9.08315 4.47427 9.44087 4.76784 9.69255 5.14451C9.94423 5.52117 10.0786 5.964 10.0786 6.41701C10.0769 7.02341 9.8349 7.60442 9.40553 8.03264C8.97617 8.46085 8.39451 8.70133 7.78811 8.70132V8.70746Z" fill="#07B1FD"/>
<path d="M7.78639 6.07873e-10C5.8737 0.00159753 4.03937 0.760016 2.68403 2.10961C1.32868 3.4592 0.562467 5.29029 0.552734 7.20295C0.552734 10.0706 2.16158 12.4716 3.34058 14.2217L3.5555 14.541C4.72853 16.2411 5.98692 17.8807 7.32584 19.4535L7.79253 20L8.25921 19.4535C9.59796 17.8806 10.8563 16.241 12.0296 14.541L12.2445 14.2155C13.4173 12.4655 15.0262 10.0706 15.0262 7.20295C15.0164 5.28923 14.2494 3.45721 12.8927 2.10744C11.536 0.757677 9.70013 -2.47811e-05 7.78639 6.07873e-10V6.07873e-10ZM11.219 13.5094L10.9979 13.8348C9.94174 15.4191 8.54168 17.1937 7.78639 18.0718C7.06179 17.1937 5.63103 15.4191 4.57484 13.8348L4.35992 13.5094C3.27303 11.8882 1.78086 9.67148 1.78086 7.17838C1.78086 6.38973 1.9362 5.60879 2.238 4.88017C2.53981 4.15155 2.98217 3.4895 3.53984 2.93184C4.0975 2.37417 4.75955 1.93181 5.48817 1.63C6.21679 1.3282 6.99773 1.17286 7.78639 1.17286C8.57504 1.17286 9.35598 1.3282 10.0846 1.63C10.8132 1.93181 11.4753 2.37417 12.0329 2.93184C12.5906 3.4895 13.033 4.15155 13.3348 4.88017C13.6366 5.60879 13.7919 6.38973 13.7919 7.17838C13.7919 9.69604 12.3059 11.9128 11.219 13.5094V13.5094Z" fill="#07B1FD"/>
</svg>
